G75*
G70*
%OFA0B0*%
%FSLAX24Y24*%
%IPPOS*%
%LPD*%
%AMOC8*
5,1,8,0,0,1.08239X$1,22.5*
%
%ADD10C,0.0080*%
%ADD11R,0.0276X0.0354*%
%ADD12R,0.0354X0.0276*%
%ADD13R,0.0472X0.0217*%
%ADD14R,0.0630X0.0551*%
%ADD15R,0.0394X0.0394*%
%ADD16R,0.0118X0.0256*%
%ADD17R,0.0256X0.0118*%
%ADD18C,0.0600*%
%ADD19OC8,0.1000*%
%ADD20R,0.0472X0.0472*%
%ADD21R,0.0394X0.0138*%
%ADD22R,0.0118X0.0315*%
%ADD23R,0.0315X0.0118*%
%ADD24R,0.0433X0.0394*%
%ADD25R,0.0512X0.0591*%
%ADD26C,0.0850*%
%ADD27R,0.0787X0.0787*%
%ADD28R,0.0591X0.0512*%
%ADD29C,0.0100*%
%ADD30C,0.0197*%
%ADD31C,0.0110*%
%ADD32R,0.0356X0.0356*%
%ADD33C,0.0356*%
%ADD34C,0.0160*%
%ADD35C,0.0098*%
%ADD36C,0.0200*%
%ADD37C,0.0559*%
D10*
X000150Y000181D02*
X000150Y013337D01*
X030885Y013337D01*
X030885Y000181D01*
X000150Y000181D01*
X019082Y008918D02*
X019438Y008563D01*
X019082Y008918D02*
X019082Y009118D01*
X021630Y006018D02*
X021630Y006018D01*
X021631Y006018D01*
X021638Y006018D01*
D11*
X021200Y005463D03*
X020688Y005463D03*
X020456Y004963D03*
X019944Y004963D03*
X019381Y004988D03*
X018869Y004988D03*
X021207Y004963D03*
X021718Y004963D03*
X021975Y007362D03*
X022487Y007362D03*
X022875Y007363D03*
X023386Y007363D03*
X021256Y008863D03*
X020744Y008863D03*
X019593Y009113D03*
X019082Y009113D03*
X019082Y009613D03*
X019593Y009613D03*
X015353Y011087D03*
X014841Y011087D03*
X013328Y009091D03*
X012816Y009091D03*
X007881Y006925D03*
X007369Y006925D03*
X007369Y006206D03*
X007881Y006206D03*
X007767Y005606D03*
X007255Y005606D03*
D12*
X012475Y003134D03*
X012475Y002622D03*
X021638Y005507D03*
X022137Y005507D03*
X022137Y006018D03*
X021638Y006018D03*
X022228Y006407D03*
X022228Y006918D03*
X021531Y006810D03*
X021531Y007322D03*
X023922Y007413D03*
X023922Y007925D03*
X021506Y009585D03*
X021506Y010097D03*
X015156Y009743D03*
X013969Y009743D03*
X013969Y009232D03*
X015156Y009232D03*
D13*
X018744Y010307D03*
X019768Y010307D03*
X019768Y010681D03*
X019768Y011055D03*
X018744Y011055D03*
D14*
X014357Y005777D03*
X014357Y004674D03*
D15*
X019938Y007463D03*
D16*
X019938Y006715D03*
X020135Y006715D03*
X020331Y006715D03*
X019741Y006715D03*
X019544Y006715D03*
X019544Y008211D03*
X019741Y008211D03*
X019938Y008211D03*
X020135Y008211D03*
X020331Y008211D03*
D17*
X020686Y007856D03*
X020686Y007660D03*
X020686Y007463D03*
X020686Y007266D03*
X020686Y007069D03*
X019190Y007069D03*
X019190Y007266D03*
X019190Y007463D03*
X019190Y007660D03*
X019190Y007856D03*
D18*
X012906Y010531D02*
X012906Y011131D01*
X011906Y011131D02*
X011906Y010531D01*
X010906Y010531D02*
X010906Y011131D01*
X009906Y011131D02*
X009906Y010531D01*
X008906Y010531D02*
X008906Y011131D01*
X007906Y011131D02*
X007906Y010531D01*
D19*
X004547Y009666D03*
X002547Y002666D03*
X004581Y001881D03*
X006547Y002666D03*
D20*
X006757Y006206D03*
X005930Y006206D03*
X005930Y006925D03*
X006757Y006925D03*
D21*
X008828Y006956D03*
X008828Y007212D03*
X008828Y007468D03*
X008828Y007724D03*
X008828Y007980D03*
X008828Y008236D03*
X008828Y008492D03*
X008828Y008748D03*
X008828Y009003D03*
X008828Y009259D03*
X011859Y009259D03*
X011859Y009003D03*
X011859Y008748D03*
X011859Y008492D03*
X011859Y008236D03*
X011859Y007980D03*
X011859Y007724D03*
X011859Y007468D03*
X011859Y007212D03*
X011859Y006956D03*
X011859Y006700D03*
X011859Y006444D03*
X011859Y006189D03*
X011859Y005933D03*
X011859Y005677D03*
X011859Y005421D03*
X011859Y005165D03*
X011859Y004909D03*
X011859Y004653D03*
X008828Y004653D03*
X008828Y004909D03*
X008828Y005165D03*
X008828Y005421D03*
X008828Y005677D03*
X008828Y005933D03*
X008828Y006189D03*
X008828Y006444D03*
X008828Y006700D03*
D22*
X010147Y003739D03*
X010344Y003739D03*
X010541Y003739D03*
X010541Y002736D03*
X010344Y002736D03*
X010147Y002736D03*
D23*
X009842Y002844D03*
X009842Y003041D03*
X009842Y003238D03*
X009842Y003434D03*
X009842Y003631D03*
X010846Y003631D03*
X010846Y003434D03*
X010846Y003238D03*
X010846Y003041D03*
X010846Y002844D03*
D24*
X011000Y002050D03*
X010331Y002050D03*
D25*
X020251Y001625D03*
X020999Y001625D03*
X020999Y002594D03*
X020251Y002594D03*
D26*
X018072Y003628D03*
X018072Y005596D03*
X013150Y005596D03*
X013150Y003628D03*
D27*
X020119Y004019D03*
X021497Y004019D03*
D28*
X017949Y010358D03*
X017949Y011106D03*
D29*
X017450Y010480D02*
X016757Y010480D01*
X016752Y010466D01*
X016665Y010379D01*
X015866Y009580D01*
X015779Y009493D01*
X015666Y009446D01*
X015543Y009446D01*
X015543Y009007D01*
X015421Y008885D01*
X015421Y008471D01*
X015643Y008471D01*
X015643Y008471D01*
X015766Y008594D01*
X016296Y008594D01*
X016419Y008471D01*
X016419Y008121D01*
X017450Y008121D01*
X017450Y010480D01*
X017450Y010394D02*
X016680Y010394D01*
X016581Y010296D02*
X017450Y010296D01*
X017450Y010197D02*
X016483Y010197D01*
X016384Y010099D02*
X017450Y010099D01*
X017450Y010000D02*
X016286Y010000D01*
X016187Y009902D02*
X017450Y009902D01*
X017450Y009803D02*
X016089Y009803D01*
X015990Y009705D02*
X017450Y009705D01*
X017450Y009606D02*
X015892Y009606D01*
X015793Y009508D02*
X017450Y009508D01*
X017450Y009409D02*
X015543Y009409D01*
X015543Y009311D02*
X017450Y009311D01*
X017450Y009212D02*
X015543Y009212D01*
X015543Y009114D02*
X017450Y009114D01*
X017450Y009015D02*
X015543Y009015D01*
X015453Y008917D02*
X017450Y008917D01*
X017450Y008818D02*
X015421Y008818D01*
X015421Y008720D02*
X017450Y008720D01*
X017450Y008621D02*
X015421Y008621D01*
X015421Y008523D02*
X015694Y008523D01*
X016368Y008523D02*
X017450Y008523D01*
X017450Y008424D02*
X016419Y008424D01*
X016419Y008326D02*
X017450Y008326D01*
X017450Y008227D02*
X016419Y008227D01*
X016419Y008129D02*
X017450Y008129D01*
X018050Y008129D02*
X019335Y008129D01*
X019335Y008126D02*
X018975Y008126D01*
X018971Y008121D01*
X018050Y008121D01*
X018050Y009952D01*
X018264Y009952D01*
X018302Y009962D01*
X018336Y009982D01*
X018364Y010010D01*
X018377Y010033D01*
X018421Y009989D01*
X018943Y009989D01*
X018993Y009940D01*
X018924Y009940D01*
X018886Y009929D01*
X018852Y009910D01*
X018824Y009882D01*
X018804Y009848D01*
X018794Y009809D01*
X018794Y009631D01*
X019063Y009631D01*
X019063Y009594D01*
X018794Y009594D01*
X018794Y009416D01*
X018804Y009377D01*
X018813Y009363D01*
X018804Y009348D01*
X018794Y009309D01*
X018794Y009131D01*
X019063Y009131D01*
X019063Y009094D01*
X018794Y009094D01*
X018794Y008916D01*
X018804Y008877D01*
X018824Y008843D01*
X018852Y008815D01*
X018886Y008796D01*
X018924Y008785D01*
X019063Y008785D01*
X019063Y009094D01*
X019100Y009094D01*
X019100Y008785D01*
X019239Y008785D01*
X019277Y008796D01*
X019291Y008803D01*
X019333Y008761D01*
X019333Y008705D01*
X019373Y008609D01*
X019481Y008501D01*
X019481Y008489D01*
X019465Y008489D01*
X019427Y008479D01*
X019393Y008459D01*
X019365Y008431D01*
X019345Y008397D01*
X019335Y008359D01*
X019335Y008211D01*
X019472Y008211D01*
X019472Y008211D01*
X019335Y008211D01*
X019335Y008126D01*
X019335Y008227D02*
X018050Y008227D01*
X018050Y008326D02*
X019335Y008326D01*
X019361Y008424D02*
X018050Y008424D01*
X018050Y008523D02*
X019460Y008523D01*
X019438Y008563D02*
X019544Y008456D01*
X019544Y008211D01*
X019741Y008211D02*
X019741Y008609D01*
X019593Y008757D01*
X019593Y009113D01*
X020125Y009157D02*
X020526Y009558D01*
X020351Y009803D02*
X021188Y009803D01*
X021197Y009794D02*
X021189Y009780D01*
X021179Y009742D01*
X021179Y009604D01*
X021487Y009604D01*
X021487Y009566D01*
X021179Y009566D01*
X021179Y009427D01*
X021189Y009389D01*
X021209Y009355D01*
X021237Y009327D01*
X021271Y009307D01*
X021309Y009297D01*
X021487Y009297D01*
X021487Y009566D01*
X021525Y009566D01*
X021525Y009604D01*
X021833Y009604D01*
X021833Y009742D01*
X021823Y009780D01*
X021815Y009794D01*
X021893Y009872D01*
X021893Y009888D01*
X022190Y009888D01*
X022431Y009647D01*
X022431Y009030D01*
X022246Y009030D01*
X022150Y008991D01*
X022077Y008918D01*
X021993Y008834D01*
X021655Y008834D01*
X021604Y008812D01*
X021604Y009127D01*
X021481Y009250D01*
X021031Y009250D01*
X020953Y009172D01*
X020940Y009179D01*
X020902Y009190D01*
X020763Y009190D01*
X020763Y008881D01*
X020908Y008881D01*
X020908Y008844D01*
X020763Y008844D01*
X020763Y008881D01*
X020725Y008881D01*
X020725Y008844D01*
X020456Y008844D01*
X020456Y008721D01*
X020385Y008721D01*
X020287Y008681D01*
X020203Y008596D01*
X020203Y009321D01*
X020162Y009418D01*
X020088Y009493D01*
X020064Y009516D01*
X020436Y009888D01*
X021119Y009888D01*
X021119Y009872D01*
X021197Y009794D01*
X021179Y009705D02*
X020253Y009705D01*
X020154Y009606D02*
X021179Y009606D01*
X021179Y009508D02*
X020073Y009508D01*
X020166Y009409D02*
X021184Y009409D01*
X021265Y009311D02*
X020203Y009311D01*
X020203Y009212D02*
X020993Y009212D01*
X020763Y009114D02*
X020725Y009114D01*
X020725Y009190D02*
X020725Y008881D01*
X020456Y008881D01*
X020456Y009059D01*
X020467Y009098D01*
X020486Y009132D01*
X020514Y009160D01*
X020548Y009179D01*
X020587Y009190D01*
X020725Y009190D01*
X020725Y009015D02*
X020763Y009015D01*
X020763Y008917D02*
X020725Y008917D01*
X020744Y008863D02*
X020784Y008863D01*
X021506Y009585D01*
X021730Y009361D01*
X022297Y009361D01*
X022431Y009409D02*
X021828Y009409D01*
X021833Y009427D02*
X021833Y009566D01*
X021525Y009566D01*
X021525Y009297D01*
X021703Y009297D01*
X021741Y009307D01*
X021775Y009327D01*
X021803Y009355D01*
X021823Y009389D01*
X021833Y009427D01*
X021833Y009508D02*
X022431Y009508D01*
X022431Y009606D02*
X021833Y009606D01*
X021833Y009705D02*
X022373Y009705D01*
X022275Y009803D02*
X021825Y009803D01*
X021525Y009508D02*
X021487Y009508D01*
X021487Y009409D02*
X021525Y009409D01*
X021525Y009311D02*
X021487Y009311D01*
X021518Y009212D02*
X022431Y009212D01*
X022431Y009114D02*
X021604Y009114D01*
X021604Y009015D02*
X022208Y009015D01*
X022076Y008917D02*
X021604Y008917D01*
X021604Y008818D02*
X021617Y008818D01*
X021707Y008574D02*
X022100Y008574D01*
X022297Y008770D01*
X022494Y008770D01*
X022691Y008574D01*
X022691Y009755D01*
X022297Y010148D01*
X021454Y010148D01*
X021506Y010097D01*
X021454Y010148D02*
X020329Y010148D01*
X019793Y009613D01*
X019593Y009613D02*
X019593Y009707D01*
X018993Y010307D01*
X018744Y010307D01*
X018410Y010000D02*
X018354Y010000D01*
X018050Y009902D02*
X018844Y009902D01*
X018794Y009803D02*
X018050Y009803D01*
X018050Y009705D02*
X018794Y009705D01*
X019063Y009606D02*
X018050Y009606D01*
X018050Y009508D02*
X018794Y009508D01*
X018796Y009409D02*
X018050Y009409D01*
X018050Y009311D02*
X018794Y009311D01*
X018794Y009212D02*
X018050Y009212D01*
X018050Y009114D02*
X019063Y009114D01*
X019063Y009131D02*
X019063Y009594D01*
X019100Y009594D01*
X019100Y009440D01*
X019100Y009131D01*
X019063Y009131D01*
X019082Y009118D02*
X019088Y009113D01*
X019082Y009113D01*
X019063Y009015D02*
X019100Y009015D01*
X019100Y008917D02*
X019063Y008917D01*
X019063Y008818D02*
X019100Y008818D01*
X018849Y008818D02*
X018050Y008818D01*
X018050Y008720D02*
X019333Y008720D01*
X019368Y008621D02*
X018050Y008621D01*
X018050Y008917D02*
X018794Y008917D01*
X018794Y009015D02*
X018050Y009015D01*
X019063Y009212D02*
X019100Y009212D01*
X019100Y009311D02*
X019063Y009311D01*
X019063Y009409D02*
X019100Y009409D01*
X019100Y009508D02*
X019063Y009508D01*
X020125Y009157D02*
X020125Y008519D01*
X020203Y008621D02*
X020228Y008621D01*
X020203Y008720D02*
X020381Y008720D01*
X020456Y008818D02*
X020203Y008818D01*
X020203Y008917D02*
X020456Y008917D01*
X020456Y009015D02*
X020203Y009015D01*
X020203Y009114D02*
X020476Y009114D01*
X021707Y008574D02*
X020990Y007856D01*
X020686Y007856D01*
X020686Y007660D02*
X021777Y007660D01*
X022100Y007983D01*
X023085Y007983D01*
X023281Y008180D01*
X023281Y008574D01*
X023079Y008621D02*
X023950Y008621D01*
X023950Y008523D02*
X023079Y008523D01*
X023079Y008424D02*
X023950Y008424D01*
X023950Y008326D02*
X023079Y008326D01*
X023079Y008227D02*
X023950Y008227D01*
X023950Y008212D02*
X023941Y008212D01*
X023941Y007944D01*
X023903Y007944D01*
X023903Y008212D01*
X023725Y008212D01*
X023687Y008202D01*
X023652Y008183D01*
X023625Y008155D01*
X023605Y008120D01*
X023595Y008082D01*
X023595Y007944D01*
X023903Y007944D01*
X023903Y007906D01*
X023595Y007906D01*
X023595Y007767D01*
X023599Y007750D01*
X023162Y007750D01*
X023131Y007719D01*
X023099Y007750D01*
X022650Y007750D01*
X022650Y007750D01*
X022262Y007750D01*
X022231Y007718D01*
X022200Y007750D01*
X021750Y007750D01*
X021670Y007669D01*
X021551Y007669D01*
X021537Y007683D01*
X021442Y007723D01*
X021224Y007723D01*
X021814Y008314D01*
X022152Y008314D01*
X022248Y008353D01*
X022303Y008408D01*
X022303Y008112D01*
X022426Y007989D01*
X022956Y007989D01*
X023079Y008112D01*
X023079Y008642D01*
X022956Y008765D01*
X022951Y008765D01*
X022951Y009806D01*
X022911Y009902D01*
X022838Y009975D01*
X022445Y010369D01*
X022349Y010408D01*
X021806Y010408D01*
X021770Y010444D01*
X021242Y010444D01*
X021206Y010408D01*
X020277Y010408D01*
X020214Y010382D01*
X020214Y010502D01*
X020154Y010562D01*
X020154Y010677D01*
X019772Y010677D01*
X019772Y010685D01*
X020154Y010685D01*
X020154Y010740D01*
X020187Y010740D01*
X020190Y010742D01*
X020701Y010742D01*
X020814Y010789D01*
X021181Y011155D01*
X021228Y011268D01*
X021228Y011785D01*
X021181Y011898D01*
X021094Y011985D01*
X020590Y012488D01*
X020590Y012488D01*
X020503Y012575D01*
X020390Y012622D01*
X018050Y012622D01*
X018050Y013087D01*
X023950Y013087D01*
X023950Y008212D01*
X023941Y008129D02*
X023903Y008129D01*
X023903Y008030D02*
X023941Y008030D01*
X023903Y007932D02*
X021432Y007932D01*
X021531Y008030D02*
X022384Y008030D01*
X022303Y008129D02*
X021629Y008129D01*
X021728Y008227D02*
X022303Y008227D01*
X022303Y008326D02*
X022181Y008326D01*
X022691Y008377D02*
X022691Y008574D01*
X023001Y008720D02*
X023950Y008720D01*
X023950Y008818D02*
X022951Y008818D01*
X022951Y008917D02*
X023950Y008917D01*
X023950Y009015D02*
X022951Y009015D01*
X022951Y009114D02*
X023950Y009114D01*
X023950Y009212D02*
X022951Y009212D01*
X022951Y009311D02*
X023950Y009311D01*
X023950Y009409D02*
X022951Y009409D01*
X022951Y009508D02*
X023950Y009508D01*
X023950Y009606D02*
X022951Y009606D01*
X022951Y009705D02*
X023950Y009705D01*
X023950Y009803D02*
X022951Y009803D01*
X022912Y009902D02*
X023950Y009902D01*
X023950Y010000D02*
X022813Y010000D01*
X022715Y010099D02*
X023950Y010099D01*
X023950Y010197D02*
X022616Y010197D01*
X022518Y010296D02*
X023950Y010296D01*
X023950Y010394D02*
X022384Y010394D01*
X021109Y011084D02*
X023950Y011084D01*
X023950Y011182D02*
X021192Y011182D01*
X021228Y011281D02*
X023950Y011281D01*
X023950Y011379D02*
X021228Y011379D01*
X021228Y011478D02*
X023950Y011478D01*
X023950Y011576D02*
X021228Y011576D01*
X021228Y011675D02*
X023950Y011675D01*
X023950Y011773D02*
X021228Y011773D01*
X021192Y011872D02*
X023950Y011872D01*
X023950Y011970D02*
X021109Y011970D01*
X021094Y011985D02*
X021094Y011985D01*
X021010Y012069D02*
X023950Y012069D01*
X023950Y012167D02*
X020912Y012167D01*
X020813Y012266D02*
X023950Y012266D01*
X023950Y012364D02*
X020715Y012364D01*
X020616Y012463D02*
X023950Y012463D01*
X023950Y012561D02*
X020518Y012561D01*
X018050Y012660D02*
X023950Y012660D01*
X023950Y012758D02*
X018050Y012758D01*
X018050Y012857D02*
X023950Y012857D01*
X023950Y012955D02*
X018050Y012955D01*
X018050Y013054D02*
X023950Y013054D01*
X023950Y010985D02*
X021011Y010985D01*
X020912Y010887D02*
X023950Y010887D01*
X023950Y010788D02*
X020813Y010788D01*
X020214Y010493D02*
X023950Y010493D01*
X023950Y010591D02*
X020154Y010591D01*
X020154Y010690D02*
X023950Y010690D01*
X023772Y009361D02*
X023772Y008074D01*
X023922Y007925D01*
X023595Y007833D02*
X021334Y007833D01*
X021235Y007735D02*
X021735Y007735D01*
X022215Y007735D02*
X022247Y007735D01*
X021975Y007362D02*
X021934Y007322D01*
X021531Y007322D01*
X021390Y007463D01*
X020686Y007463D01*
X020686Y007266D02*
X020734Y007266D01*
X020738Y007263D01*
X020888Y007263D01*
X020888Y007227D01*
X021313Y006802D01*
X021523Y006802D01*
X021531Y006810D01*
X022119Y006810D01*
X022228Y006918D01*
X022615Y006947D02*
X023950Y006947D01*
X023950Y007045D02*
X023681Y007045D01*
X023701Y007065D02*
X023950Y007065D01*
X023950Y000450D01*
X018050Y000450D01*
X018050Y003578D01*
X018122Y003578D01*
X018122Y003678D01*
X018646Y003678D01*
X018632Y003762D01*
X018604Y003848D01*
X018563Y003929D01*
X018510Y004002D01*
X018446Y004066D01*
X018373Y004120D01*
X018292Y004161D01*
X018206Y004189D01*
X018122Y004202D01*
X018122Y003678D01*
X018050Y003678D01*
X018050Y004366D01*
X018263Y004366D01*
X018376Y004413D01*
X018604Y004641D01*
X018642Y004602D01*
X018642Y003788D01*
X018687Y003680D01*
X018687Y003349D01*
X018734Y003236D01*
X019477Y002493D01*
X019563Y002407D01*
X019677Y002360D01*
X019785Y002360D01*
X019785Y002212D01*
X019887Y002109D01*
X019785Y002007D01*
X019785Y001243D01*
X019908Y001120D01*
X020594Y001120D01*
X020672Y001198D01*
X020685Y001190D01*
X020723Y001180D01*
X020949Y001180D01*
X020949Y001575D01*
X021049Y001575D01*
X021049Y001180D01*
X021275Y001180D01*
X021313Y001190D01*
X021347Y001210D01*
X021375Y001238D01*
X021395Y001272D01*
X021405Y001310D01*
X021405Y001575D01*
X021049Y001575D01*
X021049Y001675D01*
X021405Y001675D01*
X021405Y001940D01*
X021395Y001978D01*
X021375Y002012D01*
X021347Y002040D01*
X021313Y002060D01*
X021275Y002070D01*
X021049Y002070D01*
X021049Y001675D01*
X020949Y001675D01*
X020949Y002070D01*
X020723Y002070D01*
X020685Y002060D01*
X020672Y002052D01*
X020615Y002109D01*
X020672Y002166D01*
X020685Y002159D01*
X020723Y002149D01*
X020949Y002149D01*
X020949Y002544D01*
X021049Y002544D01*
X021049Y002644D01*
X020949Y002644D01*
X020949Y003039D01*
X020723Y003039D01*
X020685Y003029D01*
X020672Y003021D01*
X020594Y003099D01*
X019908Y003099D01*
X019826Y003017D01*
X019304Y003538D01*
X019304Y003911D01*
X019259Y004019D01*
X019259Y004660D01*
X019362Y004660D01*
X019362Y004969D01*
X019400Y004969D01*
X019400Y005006D01*
X019656Y005006D01*
X019656Y004981D01*
X019925Y004981D01*
X019925Y004944D01*
X019669Y004944D01*
X019669Y004969D01*
X019400Y004969D01*
X019400Y004660D01*
X019538Y004660D01*
X019577Y004671D01*
X019611Y004690D01*
X019639Y004718D01*
X019658Y004752D01*
X019659Y004755D01*
X019667Y004727D01*
X019686Y004693D01*
X019714Y004665D01*
X019748Y004646D01*
X019787Y004635D01*
X019925Y004635D01*
X019925Y004944D01*
X019963Y004944D01*
X019963Y004635D01*
X020102Y004635D01*
X020122Y004641D01*
X020104Y004622D01*
X019638Y004622D01*
X019515Y004499D01*
X019515Y003538D01*
X019638Y003415D01*
X020600Y003415D01*
X020723Y003538D01*
X020723Y004499D01*
X020713Y004509D01*
X020734Y004560D01*
X020734Y004628D01*
X020804Y004698D01*
X020804Y005075D01*
X020859Y005075D01*
X020859Y004698D01*
X020975Y004582D01*
X020893Y004499D01*
X020893Y003538D01*
X021016Y003415D01*
X021977Y003415D01*
X022101Y003538D01*
X022101Y004499D01*
X021977Y004622D01*
X021762Y004622D01*
X021762Y004635D01*
X021876Y004635D01*
X021914Y004646D01*
X021948Y004665D01*
X021976Y004693D01*
X021996Y004727D01*
X022006Y004766D01*
X022006Y004944D01*
X021737Y004944D01*
X021737Y004981D01*
X022006Y004981D01*
X022006Y005159D01*
X021996Y005198D01*
X021984Y005219D01*
X022118Y005219D01*
X022118Y005488D01*
X021810Y005488D01*
X021810Y005488D01*
X021656Y005488D01*
X021656Y005525D01*
X021965Y005525D01*
X021965Y005525D01*
X022118Y005525D01*
X022118Y005488D01*
X022156Y005488D01*
X022156Y005525D01*
X022464Y005525D01*
X022464Y005664D01*
X022454Y005702D01*
X022446Y005716D01*
X022524Y005794D01*
X022524Y006091D01*
X022615Y006182D01*
X022615Y006631D01*
X022584Y006662D01*
X022615Y006694D01*
X022615Y006975D01*
X022712Y006975D01*
X022712Y006976D01*
X023099Y006976D01*
X023131Y007007D01*
X023162Y006976D01*
X023611Y006976D01*
X023701Y007065D01*
X023950Y006848D02*
X022615Y006848D01*
X022615Y006750D02*
X023950Y006750D01*
X023950Y006651D02*
X022596Y006651D01*
X022615Y006553D02*
X023950Y006553D01*
X023950Y006454D02*
X022615Y006454D01*
X022615Y006356D02*
X023950Y006356D01*
X023950Y006257D02*
X022615Y006257D01*
X022592Y006159D02*
X023950Y006159D01*
X023950Y006060D02*
X022524Y006060D01*
X022524Y005962D02*
X023950Y005962D01*
X023950Y005863D02*
X022524Y005863D01*
X022495Y005765D02*
X023950Y005765D01*
X023950Y005666D02*
X022464Y005666D01*
X022464Y005568D02*
X023950Y005568D01*
X023950Y005469D02*
X022464Y005469D01*
X022464Y005488D02*
X022156Y005488D01*
X022156Y005219D01*
X022334Y005219D01*
X022372Y005229D01*
X022407Y005249D01*
X022434Y005277D01*
X022454Y005311D01*
X022464Y005349D01*
X022464Y005488D01*
X022464Y005371D02*
X023950Y005371D01*
X023950Y005272D02*
X022430Y005272D01*
X022156Y005272D02*
X022118Y005272D01*
X022118Y005371D02*
X022156Y005371D01*
X022156Y005469D02*
X022118Y005469D01*
X022002Y005174D02*
X023950Y005174D01*
X023950Y005075D02*
X022006Y005075D01*
X021737Y004977D02*
X023950Y004977D01*
X023950Y004878D02*
X022006Y004878D01*
X022006Y004780D02*
X023950Y004780D01*
X023950Y004681D02*
X021964Y004681D01*
X022017Y004583D02*
X023950Y004583D01*
X023950Y004484D02*
X022101Y004484D01*
X022101Y004386D02*
X023950Y004386D01*
X023950Y004287D02*
X022101Y004287D01*
X022101Y004189D02*
X023950Y004189D01*
X023950Y004090D02*
X022101Y004090D01*
X022101Y003992D02*
X023950Y003992D01*
X023950Y003893D02*
X022101Y003893D01*
X022101Y003795D02*
X023950Y003795D01*
X023950Y003696D02*
X022101Y003696D01*
X022101Y003598D02*
X023950Y003598D01*
X023950Y003499D02*
X022061Y003499D01*
X021375Y002981D02*
X021347Y003009D01*
X021313Y003029D01*
X021275Y003039D01*
X021049Y003039D01*
X021049Y002644D01*
X021405Y002644D01*
X021405Y002909D01*
X021395Y002947D01*
X021375Y002981D01*
X021350Y003007D02*
X023950Y003007D01*
X023950Y003105D02*
X019737Y003105D01*
X019639Y003204D02*
X023950Y003204D01*
X023950Y003302D02*
X019540Y003302D01*
X019442Y003401D02*
X023950Y003401D01*
X023950Y002908D02*
X021405Y002908D01*
X021405Y002810D02*
X023950Y002810D01*
X023950Y002711D02*
X021405Y002711D01*
X021405Y002544D02*
X021049Y002544D01*
X021049Y002149D01*
X021275Y002149D01*
X021313Y002159D01*
X021347Y002178D01*
X021375Y002206D01*
X021395Y002241D01*
X021405Y002279D01*
X021405Y002544D01*
X021405Y002514D02*
X023950Y002514D01*
X023950Y002416D02*
X021405Y002416D01*
X021405Y002317D02*
X023950Y002317D01*
X023950Y002219D02*
X021382Y002219D01*
X021049Y002219D02*
X020949Y002219D01*
X020949Y002317D02*
X021049Y002317D01*
X021049Y002416D02*
X020949Y002416D01*
X020949Y002514D02*
X021049Y002514D01*
X021049Y002613D02*
X023950Y002613D01*
X023950Y002120D02*
X020625Y002120D01*
X020949Y002022D02*
X021049Y002022D01*
X021049Y001923D02*
X020949Y001923D01*
X020949Y001825D02*
X021049Y001825D01*
X021049Y001726D02*
X020949Y001726D01*
X021049Y001628D02*
X023950Y001628D01*
X023950Y001726D02*
X021405Y001726D01*
X021405Y001825D02*
X023950Y001825D01*
X023950Y001923D02*
X021405Y001923D01*
X021366Y002022D02*
X023950Y002022D01*
X023950Y001529D02*
X021405Y001529D01*
X021405Y001431D02*
X023950Y001431D01*
X023950Y001332D02*
X021405Y001332D01*
X021371Y001234D02*
X023950Y001234D01*
X023950Y001135D02*
X020609Y001135D01*
X020949Y001234D02*
X021049Y001234D01*
X021049Y001332D02*
X020949Y001332D01*
X020949Y001431D02*
X021049Y001431D01*
X021049Y001529D02*
X020949Y001529D01*
X019893Y001135D02*
X018050Y001135D01*
X018050Y001037D02*
X023950Y001037D01*
X023950Y000938D02*
X018050Y000938D01*
X018050Y000840D02*
X023950Y000840D01*
X023950Y000741D02*
X018050Y000741D01*
X018050Y000643D02*
X023950Y000643D01*
X023950Y000544D02*
X018050Y000544D01*
X017450Y000544D02*
X000400Y000544D01*
X000400Y000450D02*
X000400Y013087D01*
X017450Y013087D01*
X017450Y012622D01*
X009441Y012622D01*
X009327Y012575D01*
X009240Y012488D01*
X008911Y012159D01*
X008582Y012488D01*
X008496Y012575D01*
X008382Y012622D01*
X006094Y012622D01*
X005981Y012575D01*
X005193Y011788D01*
X005107Y011701D01*
X005060Y011588D01*
X005060Y010072D01*
X004816Y010316D01*
X004597Y010316D01*
X004597Y009716D01*
X004497Y009716D01*
X004497Y010316D01*
X004278Y010316D01*
X003897Y009935D01*
X003897Y009716D01*
X004497Y009716D01*
X004497Y009616D01*
X003897Y009616D01*
X003897Y009396D01*
X004278Y009016D01*
X004497Y009016D01*
X004497Y009616D01*
X004597Y009616D01*
X004597Y009016D01*
X004816Y009016D01*
X005060Y009259D01*
X005060Y003783D01*
X005107Y003670D01*
X005817Y002960D01*
X005469Y002960D01*
X005429Y002977D01*
X005307Y002977D01*
X005193Y002930D01*
X005178Y002914D01*
X005174Y002913D01*
X005087Y002826D01*
X005086Y002822D01*
X004855Y002591D01*
X004287Y002591D01*
X003871Y002175D01*
X003871Y001587D01*
X004287Y001171D01*
X004875Y001171D01*
X005291Y001587D01*
X005291Y002155D01*
X005476Y002340D01*
X005869Y002340D01*
X006253Y001956D01*
X006841Y001956D01*
X007257Y002372D01*
X007257Y002960D01*
X006841Y003376D01*
X006273Y003376D01*
X005677Y003973D01*
X005677Y005820D01*
X005880Y005820D01*
X005880Y006156D01*
X005980Y006156D01*
X005980Y005820D01*
X006186Y005820D01*
X006224Y005830D01*
X006259Y005850D01*
X006287Y005878D01*
X006306Y005912D01*
X006311Y005929D01*
X006311Y005883D01*
X006434Y005760D01*
X006707Y005760D01*
X006325Y005377D01*
X006284Y005280D01*
X006284Y004387D01*
X006325Y004290D01*
X006399Y004215D01*
X006711Y003903D01*
X006809Y003863D01*
X007152Y003863D01*
X007189Y003826D01*
X007219Y003813D01*
X007840Y003192D01*
X007840Y001788D01*
X007887Y001674D01*
X008687Y000874D01*
X008774Y000787D01*
X008888Y000740D01*
X011686Y000740D01*
X011800Y000787D01*
X012061Y001049D01*
X012279Y000831D01*
X012393Y000783D01*
X014288Y000783D01*
X014402Y000831D01*
X014489Y000918D01*
X014491Y000922D01*
X014685Y001115D01*
X014732Y001229D01*
X014732Y004189D01*
X014759Y004189D01*
X014882Y004312D01*
X014882Y004366D01*
X017450Y004366D01*
X017450Y000450D01*
X000400Y000450D01*
X000400Y000643D02*
X017450Y000643D01*
X017450Y000741D02*
X011688Y000741D01*
X011852Y000840D02*
X012270Y000840D01*
X012172Y000938D02*
X011950Y000938D01*
X012049Y001037D02*
X012073Y001037D01*
X011496Y001360D02*
X009078Y001360D01*
X008460Y001978D01*
X008460Y003059D01*
X008506Y003013D01*
X008604Y002973D01*
X009474Y002973D01*
X009474Y002698D01*
X009597Y002575D01*
X009878Y002575D01*
X009878Y002491D01*
X009887Y002482D01*
X009887Y002182D01*
X009904Y002140D01*
X009904Y001766D01*
X010027Y001643D01*
X010634Y001643D01*
X010712Y001721D01*
X010726Y001713D01*
X010764Y001703D01*
X010952Y001703D01*
X010952Y002002D01*
X011049Y002002D01*
X011049Y002098D01*
X011367Y002098D01*
X011367Y002267D01*
X011357Y002305D01*
X011337Y002339D01*
X011309Y002367D01*
X011275Y002387D01*
X011237Y002397D01*
X011049Y002397D01*
X011049Y002098D01*
X010952Y002098D01*
X010952Y002397D01*
X010764Y002397D01*
X010726Y002387D01*
X010712Y002379D01*
X010705Y002386D01*
X010810Y002491D01*
X010810Y002575D01*
X011090Y002575D01*
X011094Y002579D01*
X011776Y002579D01*
X011796Y002558D01*
X011796Y001828D01*
X011801Y001816D01*
X011801Y001665D01*
X011798Y001663D01*
X011496Y001360D01*
X011566Y001431D02*
X009008Y001431D01*
X009108Y001487D02*
X010880Y001487D01*
X011077Y001684D01*
X011077Y001973D01*
X011000Y002050D01*
X011049Y002022D02*
X011796Y002022D01*
X011796Y002120D02*
X011367Y002120D01*
X011367Y002219D02*
X011796Y002219D01*
X011796Y002317D02*
X011349Y002317D01*
X011049Y002317D02*
X010952Y002317D01*
X010952Y002219D02*
X011049Y002219D01*
X011049Y002120D02*
X010952Y002120D01*
X011049Y002002D02*
X011367Y002002D01*
X011367Y001833D01*
X011357Y001795D01*
X011337Y001761D01*
X011309Y001733D01*
X011275Y001713D01*
X011237Y001703D01*
X011049Y001703D01*
X011049Y002002D01*
X011049Y001923D02*
X010952Y001923D01*
X010952Y001825D02*
X011049Y001825D01*
X011049Y001726D02*
X010952Y001726D01*
X011297Y001726D02*
X011801Y001726D01*
X011797Y001825D02*
X011364Y001825D01*
X011367Y001923D02*
X011796Y001923D01*
X012061Y001881D02*
X012061Y001487D01*
X011763Y001628D02*
X008811Y001628D01*
X008712Y001726D02*
X009945Y001726D01*
X009904Y001825D02*
X008614Y001825D01*
X008715Y001881D02*
X009108Y001487D01*
X008909Y001529D02*
X011665Y001529D01*
X012321Y001665D02*
X012321Y001816D01*
X012326Y001828D01*
X012326Y002334D01*
X012456Y002334D01*
X012456Y002603D01*
X012494Y002603D01*
X012494Y002641D01*
X012802Y002641D01*
X012802Y002780D01*
X012792Y002818D01*
X012784Y002831D01*
X012862Y002909D01*
X012862Y003060D01*
X013024Y002993D01*
X013277Y002993D01*
X013510Y003089D01*
X013689Y003268D01*
X013785Y003501D01*
X013785Y003754D01*
X013689Y003987D01*
X013510Y004166D01*
X013277Y004263D01*
X013024Y004263D01*
X012791Y004166D01*
X012720Y004095D01*
X012720Y004296D01*
X012679Y004393D01*
X012605Y004468D01*
X012483Y004590D01*
X012428Y004644D01*
X013832Y004644D01*
X013832Y004312D01*
X013955Y004189D01*
X014115Y004189D01*
X014115Y001418D01*
X014100Y001403D01*
X012583Y001403D01*
X012321Y001665D01*
X012359Y001628D02*
X014115Y001628D01*
X014115Y001726D02*
X012321Y001726D01*
X012325Y001825D02*
X014115Y001825D01*
X014115Y001923D02*
X012326Y001923D01*
X012326Y002022D02*
X014115Y002022D01*
X014115Y002120D02*
X012326Y002120D01*
X012326Y002219D02*
X014115Y002219D01*
X014115Y002317D02*
X012326Y002317D01*
X012456Y002416D02*
X012494Y002416D01*
X012494Y002334D02*
X012672Y002334D01*
X012710Y002345D01*
X012744Y002364D01*
X012772Y002392D01*
X012792Y002426D01*
X012802Y002465D01*
X012802Y002603D01*
X012494Y002603D01*
X012494Y002334D01*
X012494Y002514D02*
X012456Y002514D01*
X012494Y002613D02*
X014115Y002613D01*
X014115Y002711D02*
X012802Y002711D01*
X012794Y002810D02*
X014115Y002810D01*
X014115Y002908D02*
X012861Y002908D01*
X012862Y003007D02*
X012991Y003007D01*
X013310Y003007D02*
X014115Y003007D01*
X014115Y003105D02*
X013526Y003105D01*
X013624Y003204D02*
X014115Y003204D01*
X014115Y003302D02*
X013703Y003302D01*
X013744Y003401D02*
X014115Y003401D01*
X014115Y003499D02*
X013784Y003499D01*
X013785Y003598D02*
X014115Y003598D01*
X014115Y003696D02*
X013785Y003696D01*
X013769Y003795D02*
X014115Y003795D01*
X014115Y003893D02*
X013728Y003893D01*
X013685Y003992D02*
X014115Y003992D01*
X014115Y004090D02*
X013586Y004090D01*
X013456Y004189D02*
X014115Y004189D01*
X013857Y004287D02*
X012720Y004287D01*
X012720Y004189D02*
X012845Y004189D01*
X012682Y004386D02*
X013832Y004386D01*
X013832Y004484D02*
X012588Y004484D01*
X012605Y004468D02*
X012605Y004468D01*
X012490Y004583D02*
X013832Y004583D01*
X014732Y004189D02*
X017450Y004189D01*
X017450Y004287D02*
X014857Y004287D01*
X014732Y004090D02*
X017450Y004090D01*
X017450Y003992D02*
X014732Y003992D01*
X014732Y003893D02*
X017450Y003893D01*
X017450Y003795D02*
X014732Y003795D01*
X014732Y003696D02*
X017450Y003696D01*
X017450Y003598D02*
X014732Y003598D01*
X014732Y003499D02*
X017450Y003499D01*
X017450Y003401D02*
X014732Y003401D01*
X014732Y003302D02*
X017450Y003302D01*
X017450Y003204D02*
X014732Y003204D01*
X014732Y003105D02*
X017450Y003105D01*
X017450Y003007D02*
X014732Y003007D01*
X014732Y002908D02*
X017450Y002908D01*
X017450Y002810D02*
X014732Y002810D01*
X014732Y002711D02*
X017450Y002711D01*
X017450Y002613D02*
X014732Y002613D01*
X014732Y002514D02*
X017450Y002514D01*
X017450Y002416D02*
X014732Y002416D01*
X014732Y002317D02*
X017450Y002317D01*
X017450Y002219D02*
X014732Y002219D01*
X014732Y002120D02*
X017450Y002120D01*
X017450Y002022D02*
X014732Y002022D01*
X014732Y001923D02*
X017450Y001923D01*
X017450Y001825D02*
X014732Y001825D01*
X014732Y001726D02*
X017450Y001726D01*
X017450Y001628D02*
X014732Y001628D01*
X014732Y001529D02*
X017450Y001529D01*
X017450Y001431D02*
X014732Y001431D01*
X014732Y001332D02*
X017450Y001332D01*
X017450Y001234D02*
X014732Y001234D01*
X014693Y001135D02*
X017450Y001135D01*
X017450Y001037D02*
X014606Y001037D01*
X014507Y000938D02*
X017450Y000938D01*
X017450Y000840D02*
X014411Y000840D01*
X014115Y001431D02*
X012556Y001431D01*
X012457Y001529D02*
X014115Y001529D01*
X013350Y001850D02*
X013050Y001550D01*
X012786Y002416D02*
X014115Y002416D01*
X014115Y002514D02*
X012802Y002514D01*
X011796Y002514D02*
X010810Y002514D01*
X010734Y002416D02*
X011796Y002416D01*
X010478Y003103D02*
X010293Y003103D01*
X010209Y003103D01*
X010209Y003372D01*
X010293Y003372D01*
X010344Y003423D01*
X010395Y003372D01*
X010478Y003372D01*
X010478Y003103D01*
X010478Y003105D02*
X010209Y003105D01*
X010178Y003041D02*
X008890Y003041D01*
X008715Y002865D01*
X008715Y001881D01*
X008515Y001923D02*
X009904Y001923D01*
X009904Y002022D02*
X008460Y002022D01*
X008460Y002120D02*
X009904Y002120D01*
X009887Y002219D02*
X008460Y002219D01*
X008460Y002317D02*
X009887Y002317D01*
X009887Y002416D02*
X008460Y002416D01*
X008460Y002514D02*
X009878Y002514D01*
X009560Y002613D02*
X008460Y002613D01*
X008460Y002711D02*
X009474Y002711D01*
X009474Y002810D02*
X008460Y002810D01*
X008460Y002908D02*
X009474Y002908D01*
X010147Y002736D02*
X010147Y002234D01*
X010331Y002050D01*
X008521Y003007D02*
X008460Y003007D01*
X008150Y003250D02*
X007354Y004046D01*
X007337Y004046D01*
X007255Y004128D01*
X006735Y003893D02*
X005756Y003893D01*
X005677Y003992D02*
X006623Y003992D01*
X006524Y004090D02*
X005677Y004090D01*
X005677Y004189D02*
X006426Y004189D01*
X006327Y004287D02*
X005677Y004287D01*
X005677Y004386D02*
X006285Y004386D01*
X006284Y004484D02*
X005677Y004484D01*
X005677Y004583D02*
X006284Y004583D01*
X006284Y004681D02*
X005677Y004681D01*
X005677Y004780D02*
X006284Y004780D01*
X006284Y004878D02*
X005677Y004878D01*
X005677Y004977D02*
X006284Y004977D01*
X006284Y005075D02*
X005677Y005075D01*
X005677Y005174D02*
X006284Y005174D01*
X006284Y005272D02*
X005677Y005272D01*
X005677Y005371D02*
X006322Y005371D01*
X006416Y005469D02*
X005677Y005469D01*
X005677Y005568D02*
X006515Y005568D01*
X006613Y005666D02*
X005677Y005666D01*
X005677Y005765D02*
X006429Y005765D01*
X006331Y005863D02*
X006272Y005863D01*
X005980Y005863D02*
X005880Y005863D01*
X005880Y005962D02*
X005980Y005962D01*
X005980Y006060D02*
X005880Y006060D01*
X005880Y006256D02*
X005880Y006539D01*
X005880Y006875D01*
X005980Y006875D01*
X005980Y006256D01*
X005880Y006256D01*
X005880Y006257D02*
X005980Y006257D01*
X005980Y006356D02*
X005880Y006356D01*
X005880Y006454D02*
X005980Y006454D01*
X005980Y006553D02*
X005880Y006553D01*
X005880Y006651D02*
X005980Y006651D01*
X005980Y006750D02*
X005880Y006750D01*
X005880Y006848D02*
X005980Y006848D01*
X005980Y006975D02*
X005880Y006975D01*
X005880Y007311D01*
X005677Y007311D01*
X005677Y011399D01*
X006283Y012005D01*
X008193Y012005D01*
X008603Y011595D01*
X008603Y011549D01*
X008474Y011420D01*
X008406Y011257D01*
X008339Y011420D01*
X008195Y011564D01*
X008008Y011641D01*
X007805Y011641D01*
X007617Y011564D01*
X007474Y011420D01*
X007396Y011233D01*
X007396Y010430D01*
X007473Y010245D01*
X007473Y007989D01*
X007520Y007875D01*
X007607Y007789D01*
X007933Y007462D01*
X008046Y007416D01*
X008169Y007416D01*
X008273Y007459D01*
X008421Y007459D01*
X008421Y006760D01*
X008229Y006952D01*
X008229Y007189D01*
X008106Y007312D01*
X007656Y007312D01*
X007625Y007281D01*
X007594Y007312D01*
X007144Y007312D01*
X007142Y007310D01*
X007080Y007371D01*
X006434Y007371D01*
X006311Y007248D01*
X006311Y007202D01*
X006306Y007219D01*
X006287Y007253D01*
X006259Y007281D01*
X006224Y007301D01*
X006186Y007311D01*
X005980Y007311D01*
X005980Y006975D01*
X005980Y007045D02*
X005880Y007045D01*
X005880Y007144D02*
X005980Y007144D01*
X005980Y007242D02*
X005880Y007242D01*
X005677Y007341D02*
X006403Y007341D01*
X006311Y007242D02*
X006293Y007242D01*
X005677Y007439D02*
X007989Y007439D01*
X007858Y007538D02*
X005677Y007538D01*
X005677Y007636D02*
X007759Y007636D01*
X007661Y007735D02*
X005677Y007735D01*
X005677Y007833D02*
X007562Y007833D01*
X007496Y007932D02*
X005677Y007932D01*
X005677Y008030D02*
X007473Y008030D01*
X007473Y008129D02*
X005677Y008129D01*
X005677Y008227D02*
X007473Y008227D01*
X007473Y008326D02*
X005677Y008326D01*
X005677Y008424D02*
X007473Y008424D01*
X007473Y008523D02*
X005677Y008523D01*
X005677Y008621D02*
X007473Y008621D01*
X007473Y008720D02*
X005677Y008720D01*
X005677Y008818D02*
X007473Y008818D01*
X007473Y008917D02*
X005677Y008917D01*
X005677Y009015D02*
X007473Y009015D01*
X007473Y009114D02*
X005677Y009114D01*
X005677Y009212D02*
X007473Y009212D01*
X007473Y009311D02*
X005677Y009311D01*
X005677Y009409D02*
X007473Y009409D01*
X007473Y009508D02*
X005677Y009508D01*
X005677Y009606D02*
X007473Y009606D01*
X007473Y009705D02*
X005677Y009705D01*
X005677Y009803D02*
X007473Y009803D01*
X007473Y009902D02*
X005677Y009902D01*
X005677Y010000D02*
X007473Y010000D01*
X007473Y010099D02*
X005677Y010099D01*
X005677Y010197D02*
X007473Y010197D01*
X007452Y010296D02*
X005677Y010296D01*
X005677Y010394D02*
X007411Y010394D01*
X007396Y010493D02*
X005677Y010493D01*
X005677Y010591D02*
X007396Y010591D01*
X007396Y010690D02*
X005677Y010690D01*
X005677Y010788D02*
X007396Y010788D01*
X007396Y010887D02*
X005677Y010887D01*
X005677Y010985D02*
X007396Y010985D01*
X007396Y011084D02*
X005677Y011084D01*
X005677Y011182D02*
X007396Y011182D01*
X007416Y011281D02*
X005677Y011281D01*
X005677Y011379D02*
X007457Y011379D01*
X007531Y011478D02*
X005755Y011478D01*
X005854Y011576D02*
X007647Y011576D01*
X008165Y011576D02*
X008603Y011576D01*
X008531Y011478D02*
X008281Y011478D01*
X008356Y011379D02*
X008457Y011379D01*
X008416Y011281D02*
X008396Y011281D01*
X008524Y011675D02*
X005952Y011675D01*
X006051Y011773D02*
X008425Y011773D01*
X008327Y011872D02*
X006149Y011872D01*
X006248Y011970D02*
X008228Y011970D01*
X008904Y012167D02*
X008919Y012167D01*
X009018Y012266D02*
X008805Y012266D01*
X008707Y012364D02*
X009116Y012364D01*
X009215Y012463D02*
X008608Y012463D01*
X008510Y012561D02*
X009313Y012561D01*
X011856Y011537D02*
X011974Y011655D01*
X013899Y011655D01*
X014493Y011060D01*
X014493Y010823D01*
X014617Y010700D01*
X015066Y010700D01*
X015097Y010731D01*
X015128Y010700D01*
X015578Y010700D01*
X015657Y010779D01*
X015916Y010779D01*
X016054Y010641D01*
X015477Y010063D01*
X015448Y010063D01*
X015420Y010091D01*
X014892Y010091D01*
X014853Y010052D01*
X014272Y010052D01*
X014233Y010091D01*
X013705Y010091D01*
X013582Y009968D01*
X013582Y009519D01*
X013613Y009487D01*
X013582Y009456D01*
X013582Y009364D01*
X013558Y009388D01*
X013523Y009408D01*
X013485Y009418D01*
X013347Y009418D01*
X013347Y009110D01*
X013309Y009110D01*
X013309Y009418D01*
X013170Y009418D01*
X013132Y009408D01*
X013119Y009400D01*
X013093Y009426D01*
X013126Y009440D01*
X013235Y009549D01*
X013294Y009692D01*
X013294Y009846D01*
X013235Y009989D01*
X013215Y010009D01*
X013215Y010118D01*
X013339Y010242D01*
X013416Y010430D01*
X013416Y011233D01*
X013339Y011420D01*
X013195Y011564D01*
X013008Y011641D01*
X012805Y011641D01*
X012617Y011564D01*
X012474Y011420D01*
X012396Y011233D01*
X012396Y010430D01*
X012474Y010242D01*
X012598Y010118D01*
X012598Y010009D01*
X012577Y009989D01*
X012518Y009846D01*
X012518Y009692D01*
X012577Y009549D01*
X012648Y009478D01*
X012591Y009478D01*
X012469Y009356D01*
X012328Y009356D01*
X012266Y009330D01*
X012266Y009415D01*
X012143Y009538D01*
X011576Y009538D01*
X011453Y009415D01*
X011453Y009084D01*
X011407Y009129D01*
X011265Y009188D01*
X011236Y009188D01*
X011215Y009209D01*
X011215Y010118D01*
X011339Y010242D01*
X011416Y010430D01*
X011416Y011097D01*
X011456Y011137D01*
X011456Y010881D01*
X011856Y010881D01*
X011856Y010781D01*
X011456Y010781D01*
X011456Y010496D01*
X011467Y010426D01*
X011489Y010359D01*
X011521Y010295D01*
X011563Y010238D01*
X011613Y010188D01*
X011670Y010146D01*
X011734Y010114D01*
X011801Y010092D01*
X011856Y010084D01*
X011856Y010781D01*
X011956Y010781D01*
X011956Y010084D01*
X012012Y010092D01*
X012079Y010114D01*
X012142Y010146D01*
X012199Y010188D01*
X012249Y010238D01*
X012291Y010295D01*
X012323Y010359D01*
X012345Y010426D01*
X012356Y010496D01*
X012356Y010781D01*
X011956Y010781D01*
X011956Y010881D01*
X011856Y010881D01*
X011856Y011537D01*
X011895Y011576D02*
X011956Y011576D01*
X011956Y011579D02*
X011956Y010881D01*
X012356Y010881D01*
X012356Y011167D01*
X012345Y011237D01*
X012323Y011304D01*
X012291Y011367D01*
X012249Y011424D01*
X012199Y011474D01*
X012142Y011516D01*
X012079Y011548D01*
X012012Y011570D01*
X011956Y011579D01*
X011975Y011576D02*
X012647Y011576D01*
X012531Y011478D02*
X012195Y011478D01*
X012282Y011379D02*
X012457Y011379D01*
X012416Y011281D02*
X012331Y011281D01*
X012354Y011182D02*
X012396Y011182D01*
X012396Y011084D02*
X012356Y011084D01*
X012356Y010985D02*
X012396Y010985D01*
X012396Y010887D02*
X012356Y010887D01*
X012396Y010788D02*
X011956Y010788D01*
X011956Y010690D02*
X011856Y010690D01*
X011856Y010788D02*
X011416Y010788D01*
X011416Y010690D02*
X011456Y010690D01*
X011456Y010591D02*
X011416Y010591D01*
X011416Y010493D02*
X011457Y010493D01*
X011478Y010394D02*
X011401Y010394D01*
X011361Y010296D02*
X011521Y010296D01*
X011604Y010197D02*
X011293Y010197D01*
X011215Y010099D02*
X011782Y010099D01*
X011856Y010099D02*
X011956Y010099D01*
X012031Y010099D02*
X012598Y010099D01*
X012589Y010000D02*
X011215Y010000D01*
X011215Y009902D02*
X012541Y009902D01*
X012518Y009803D02*
X011215Y009803D01*
X011215Y009705D02*
X012518Y009705D01*
X012554Y009606D02*
X011215Y009606D01*
X011215Y009508D02*
X011545Y009508D01*
X011453Y009409D02*
X011215Y009409D01*
X011215Y009311D02*
X011453Y009311D01*
X011453Y009212D02*
X011215Y009212D01*
X011423Y009114D02*
X011453Y009114D01*
X010799Y008752D02*
X010799Y008723D01*
X010858Y008580D01*
X010968Y008471D01*
X011110Y008412D01*
X011265Y008412D01*
X011407Y008471D01*
X011453Y008516D01*
X011453Y008336D01*
X011513Y008276D01*
X011513Y008236D01*
X011553Y008236D01*
X011553Y008236D01*
X011553Y008236D01*
X011513Y008236D01*
X011513Y008196D01*
X011453Y008136D01*
X011453Y008002D01*
X009796Y008002D01*
X009732Y008067D01*
X009590Y008126D01*
X009435Y008126D01*
X009293Y008067D01*
X009235Y008009D01*
X009235Y009415D01*
X009112Y009538D01*
X008881Y009538D01*
X008892Y009549D01*
X008951Y009692D01*
X008951Y009846D01*
X008892Y009989D01*
X008859Y010021D01*
X009008Y010021D01*
X009195Y010099D01*
X009339Y010242D01*
X009406Y010406D01*
X009474Y010242D01*
X009598Y010118D01*
X009598Y009042D01*
X009615Y009000D01*
X009615Y008929D01*
X009674Y008786D01*
X009783Y008677D01*
X009926Y008618D01*
X010080Y008618D01*
X010223Y008677D01*
X010332Y008786D01*
X010391Y008929D01*
X010391Y009083D01*
X010332Y009226D01*
X010223Y009335D01*
X010215Y009339D01*
X010215Y010118D01*
X010339Y010242D01*
X010406Y010406D01*
X010474Y010242D01*
X010598Y010118D01*
X010598Y009020D01*
X010645Y008907D01*
X010799Y008752D01*
X010801Y008720D02*
X010265Y008720D01*
X010345Y008818D02*
X010733Y008818D01*
X010641Y008917D02*
X010386Y008917D01*
X010391Y009015D02*
X010600Y009015D01*
X010598Y009114D02*
X010379Y009114D01*
X010338Y009212D02*
X010598Y009212D01*
X010598Y009311D02*
X010248Y009311D01*
X010215Y009409D02*
X010598Y009409D01*
X010598Y009508D02*
X010215Y009508D01*
X010215Y009606D02*
X010598Y009606D01*
X010598Y009705D02*
X010215Y009705D01*
X010215Y009803D02*
X010598Y009803D01*
X010598Y009902D02*
X010215Y009902D01*
X010215Y010000D02*
X010598Y010000D01*
X010598Y010099D02*
X010215Y010099D01*
X010293Y010197D02*
X010519Y010197D01*
X010452Y010296D02*
X010361Y010296D01*
X010401Y010394D02*
X010411Y010394D01*
X009598Y010099D02*
X009194Y010099D01*
X009293Y010197D02*
X009519Y010197D01*
X009452Y010296D02*
X009361Y010296D01*
X009401Y010394D02*
X009411Y010394D01*
X009598Y010000D02*
X008880Y010000D01*
X008928Y009902D02*
X009598Y009902D01*
X009598Y009803D02*
X008951Y009803D01*
X008951Y009705D02*
X009598Y009705D01*
X009598Y009606D02*
X008915Y009606D01*
X009143Y009508D02*
X009598Y009508D01*
X009598Y009409D02*
X009235Y009409D01*
X009235Y009311D02*
X009598Y009311D01*
X009598Y009212D02*
X009235Y009212D01*
X009235Y009114D02*
X009598Y009114D01*
X009609Y009015D02*
X009235Y009015D01*
X009235Y008917D02*
X009620Y008917D01*
X009661Y008818D02*
X009235Y008818D01*
X009235Y008720D02*
X009741Y008720D01*
X009919Y008621D02*
X009235Y008621D01*
X009235Y008523D02*
X010916Y008523D01*
X010842Y008621D02*
X010087Y008621D01*
X009235Y008424D02*
X011081Y008424D01*
X011294Y008424D02*
X011453Y008424D01*
X011463Y008326D02*
X009235Y008326D01*
X009235Y008227D02*
X011513Y008227D01*
X011453Y008129D02*
X009235Y008129D01*
X009235Y008030D02*
X009256Y008030D01*
X009769Y008030D02*
X011453Y008030D01*
X012273Y008245D02*
X012326Y008267D01*
X012408Y008349D01*
X012483Y008424D01*
X012706Y008424D01*
X012706Y008503D02*
X012706Y008245D01*
X012273Y008245D01*
X012385Y008326D02*
X012706Y008326D01*
X012706Y008503D02*
X012829Y008626D01*
X013359Y008626D01*
X013482Y008503D01*
X013482Y008032D01*
X013704Y008254D01*
X013704Y008885D01*
X013616Y008973D01*
X013616Y008894D01*
X013605Y008856D01*
X013586Y008821D01*
X013558Y008793D01*
X013523Y008774D01*
X013485Y008763D01*
X013347Y008763D01*
X013347Y009072D01*
X013309Y009072D01*
X013309Y008763D01*
X013170Y008763D01*
X013132Y008774D01*
X013119Y008781D01*
X013041Y008703D01*
X012591Y008703D01*
X012523Y008772D01*
X012523Y008521D01*
X012483Y008424D01*
X012523Y008523D02*
X012726Y008523D01*
X012824Y008621D02*
X012523Y008621D01*
X012523Y008720D02*
X012575Y008720D01*
X013057Y008720D02*
X013704Y008720D01*
X013704Y008818D02*
X013582Y008818D01*
X013616Y008917D02*
X013672Y008917D01*
X013347Y008917D02*
X013309Y008917D01*
X013309Y009015D02*
X013347Y009015D01*
X013347Y009114D02*
X013309Y009114D01*
X013309Y009212D02*
X013347Y009212D01*
X013347Y009311D02*
X013309Y009311D01*
X013309Y009409D02*
X013347Y009409D01*
X013518Y009409D02*
X013582Y009409D01*
X013593Y009508D02*
X013194Y009508D01*
X013138Y009409D02*
X013109Y009409D01*
X013259Y009606D02*
X013582Y009606D01*
X013582Y009705D02*
X013294Y009705D01*
X013294Y009803D02*
X013582Y009803D01*
X013582Y009902D02*
X013271Y009902D01*
X013224Y010000D02*
X013613Y010000D01*
X013293Y010197D02*
X015610Y010197D01*
X015512Y010099D02*
X013215Y010099D01*
X013361Y010296D02*
X015709Y010296D01*
X015807Y010394D02*
X013401Y010394D01*
X013416Y010493D02*
X015906Y010493D01*
X016004Y010591D02*
X013416Y010591D01*
X013416Y010690D02*
X016005Y010690D01*
X014529Y010788D02*
X013416Y010788D01*
X013416Y010887D02*
X014493Y010887D01*
X014493Y010985D02*
X013416Y010985D01*
X013416Y011084D02*
X014470Y011084D01*
X014372Y011182D02*
X013416Y011182D01*
X013396Y011281D02*
X014273Y011281D01*
X014175Y011379D02*
X013356Y011379D01*
X013281Y011478D02*
X014076Y011478D01*
X013978Y011576D02*
X013165Y011576D01*
X011956Y011478D02*
X011856Y011478D01*
X011856Y011379D02*
X011956Y011379D01*
X011956Y011281D02*
X011856Y011281D01*
X011856Y011182D02*
X011956Y011182D01*
X011956Y011084D02*
X011856Y011084D01*
X011856Y010985D02*
X011956Y010985D01*
X011956Y010887D02*
X011856Y010887D01*
X012356Y010690D02*
X012396Y010690D01*
X012396Y010591D02*
X012356Y010591D01*
X012356Y010493D02*
X012396Y010493D01*
X012411Y010394D02*
X012335Y010394D01*
X012291Y010296D02*
X012452Y010296D01*
X012519Y010197D02*
X012208Y010197D01*
X011956Y010197D02*
X011856Y010197D01*
X011856Y010296D02*
X011956Y010296D01*
X011956Y010394D02*
X011856Y010394D01*
X011856Y010493D02*
X011956Y010493D01*
X011956Y010591D02*
X011856Y010591D01*
X011456Y010887D02*
X011416Y010887D01*
X011416Y010985D02*
X011456Y010985D01*
X011456Y011084D02*
X011416Y011084D01*
X012174Y009508D02*
X012619Y009508D01*
X012522Y009409D02*
X012266Y009409D01*
X013309Y008818D02*
X013347Y008818D01*
X013363Y008621D02*
X013704Y008621D01*
X013704Y008523D02*
X013462Y008523D01*
X013482Y008424D02*
X013704Y008424D01*
X013704Y008326D02*
X013482Y008326D01*
X013482Y008227D02*
X013677Y008227D01*
X013579Y008129D02*
X013482Y008129D01*
X015129Y007242D02*
X015383Y007242D01*
X015391Y007251D02*
X015268Y007128D01*
X015268Y006626D01*
X014985Y006626D01*
X014862Y006503D01*
X014862Y005972D01*
X014985Y005849D01*
X015515Y005849D01*
X015595Y005929D01*
X017450Y005929D01*
X017450Y005755D01*
X017437Y005723D01*
X017437Y005470D01*
X017450Y005438D01*
X017450Y004983D01*
X014882Y004983D01*
X014882Y005037D01*
X014759Y005160D01*
X014209Y005160D01*
X014175Y005174D01*
X013626Y005174D01*
X013689Y005237D01*
X013785Y005470D01*
X013785Y005723D01*
X013689Y005956D01*
X013510Y006135D01*
X013373Y006191D01*
X013983Y006191D01*
X013950Y006172D01*
X013922Y006144D01*
X013903Y006110D01*
X013892Y006072D01*
X013892Y005827D01*
X014307Y005827D01*
X014307Y005727D01*
X013892Y005727D01*
X013892Y005481D01*
X013903Y005443D01*
X013922Y005409D01*
X013950Y005381D01*
X013984Y005361D01*
X014023Y005351D01*
X014307Y005351D01*
X014307Y005727D01*
X014407Y005727D01*
X014407Y005351D01*
X014692Y005351D01*
X014730Y005361D01*
X014764Y005381D01*
X014792Y005409D01*
X014812Y005443D01*
X014822Y005481D01*
X014822Y005727D01*
X014407Y005727D01*
X014407Y005827D01*
X014307Y005827D01*
X014307Y006202D01*
X014048Y006202D01*
X014119Y006232D01*
X014193Y006306D01*
X015282Y007395D01*
X015814Y007395D01*
X015670Y007251D01*
X015391Y007251D01*
X015284Y007144D02*
X015031Y007144D01*
X014932Y007045D02*
X015268Y007045D01*
X015268Y006947D02*
X014834Y006947D01*
X014735Y006848D02*
X015268Y006848D01*
X015268Y006750D02*
X014637Y006750D01*
X014538Y006651D02*
X015268Y006651D01*
X014912Y006553D02*
X014440Y006553D01*
X014341Y006454D02*
X014862Y006454D01*
X014862Y006356D02*
X014243Y006356D01*
X014144Y006257D02*
X014862Y006257D01*
X014862Y006159D02*
X014778Y006159D01*
X014764Y006172D02*
X014730Y006192D01*
X014692Y006202D01*
X014407Y006202D01*
X014407Y005827D01*
X014822Y005827D01*
X014822Y006072D01*
X014812Y006110D01*
X014792Y006144D01*
X014764Y006172D01*
X014822Y006060D02*
X014862Y006060D01*
X014873Y005962D02*
X014822Y005962D01*
X014822Y005863D02*
X014971Y005863D01*
X014822Y005666D02*
X017437Y005666D01*
X017437Y005568D02*
X014822Y005568D01*
X014819Y005469D02*
X017437Y005469D01*
X017450Y005371D02*
X014746Y005371D01*
X014407Y005371D02*
X014307Y005371D01*
X014307Y005469D02*
X014407Y005469D01*
X014407Y005568D02*
X014307Y005568D01*
X014307Y005666D02*
X014407Y005666D01*
X014407Y005765D02*
X017450Y005765D01*
X017450Y005863D02*
X015529Y005863D01*
X014407Y005863D02*
X014307Y005863D01*
X014307Y005765D02*
X013768Y005765D01*
X013785Y005666D02*
X013892Y005666D01*
X013892Y005568D02*
X013785Y005568D01*
X013785Y005469D02*
X013896Y005469D01*
X013969Y005371D02*
X013744Y005371D01*
X013703Y005272D02*
X017450Y005272D01*
X017450Y005174D02*
X014177Y005174D01*
X014150Y005150D02*
X014150Y005569D01*
X014357Y005777D01*
X014307Y005962D02*
X014407Y005962D01*
X014407Y006060D02*
X014307Y006060D01*
X014307Y006159D02*
X014407Y006159D01*
X013936Y006159D02*
X013452Y006159D01*
X013585Y006060D02*
X013892Y006060D01*
X013892Y005962D02*
X013683Y005962D01*
X013727Y005863D02*
X013892Y005863D01*
X012927Y006191D02*
X012791Y006135D01*
X012612Y005956D01*
X012515Y005723D01*
X012515Y005470D01*
X012612Y005237D01*
X012675Y005174D01*
X012266Y005174D01*
X012266Y005321D01*
X012206Y005381D01*
X012206Y005421D01*
X012206Y005461D01*
X012266Y005521D01*
X012266Y006191D01*
X012927Y006191D01*
X012848Y006159D02*
X012266Y006159D01*
X012266Y006060D02*
X012716Y006060D01*
X012618Y005962D02*
X012266Y005962D01*
X012266Y005863D02*
X012574Y005863D01*
X012533Y005765D02*
X012266Y005765D01*
X012266Y005666D02*
X012515Y005666D01*
X012515Y005568D02*
X012266Y005568D01*
X012215Y005469D02*
X012516Y005469D01*
X012475Y005425D02*
X012750Y005150D01*
X014150Y005150D01*
X014844Y005075D02*
X017450Y005075D01*
X018545Y004583D02*
X018642Y004583D01*
X018642Y004484D02*
X018447Y004484D01*
X018310Y004386D02*
X018642Y004386D01*
X018642Y004287D02*
X018050Y004287D01*
X018050Y004189D02*
X018122Y004189D01*
X018207Y004189D02*
X018642Y004189D01*
X018642Y004090D02*
X018414Y004090D01*
X018518Y003992D02*
X018642Y003992D01*
X018642Y003893D02*
X018582Y003893D01*
X018622Y003795D02*
X018642Y003795D01*
X018643Y003696D02*
X018680Y003696D01*
X018687Y003598D02*
X018122Y003598D01*
X018122Y003578D02*
X018646Y003578D01*
X018632Y003493D01*
X018604Y003407D01*
X018563Y003326D01*
X018510Y003253D01*
X018446Y003189D01*
X018373Y003136D01*
X018292Y003095D01*
X018206Y003067D01*
X018122Y003054D01*
X018122Y003578D01*
X018122Y003499D02*
X018050Y003499D01*
X018050Y003401D02*
X018122Y003401D01*
X018122Y003302D02*
X018050Y003302D01*
X018050Y003204D02*
X018122Y003204D01*
X018122Y003105D02*
X018050Y003105D01*
X018050Y003007D02*
X018964Y003007D01*
X018865Y003105D02*
X018312Y003105D01*
X018461Y003204D02*
X018767Y003204D01*
X018707Y003302D02*
X018546Y003302D01*
X018601Y003401D02*
X018687Y003401D01*
X018687Y003499D02*
X018633Y003499D01*
X018122Y003696D02*
X018050Y003696D01*
X018050Y003795D02*
X018122Y003795D01*
X018122Y003893D02*
X018050Y003893D01*
X018050Y003992D02*
X018122Y003992D01*
X018122Y004090D02*
X018050Y004090D01*
X018951Y003849D02*
X018996Y003849D01*
X019270Y003992D02*
X019515Y003992D01*
X019515Y004090D02*
X019259Y004090D01*
X019259Y004189D02*
X019515Y004189D01*
X019515Y004287D02*
X019259Y004287D01*
X019259Y004386D02*
X019515Y004386D01*
X019515Y004484D02*
X019259Y004484D01*
X019259Y004583D02*
X019598Y004583D01*
X019595Y004681D02*
X019698Y004681D01*
X019925Y004681D02*
X019963Y004681D01*
X019963Y004780D02*
X019925Y004780D01*
X019925Y004878D02*
X019963Y004878D01*
X019944Y004963D02*
X019406Y004963D01*
X019381Y004988D01*
X019400Y004977D02*
X019925Y004977D01*
X019925Y004981D02*
X019925Y005290D01*
X019787Y005290D01*
X019748Y005279D01*
X019714Y005260D01*
X019686Y005232D01*
X019667Y005198D01*
X019666Y005195D01*
X019658Y005223D01*
X019639Y005257D01*
X019611Y005285D01*
X019577Y005304D01*
X019538Y005315D01*
X019495Y005315D01*
X019536Y005356D01*
X019536Y005634D01*
X019891Y005990D01*
X019891Y005810D01*
X019932Y005712D01*
X020247Y005397D01*
X020231Y005381D01*
X020209Y005328D01*
X020153Y005272D01*
X020140Y005279D01*
X020102Y005290D01*
X019963Y005290D01*
X019963Y004981D01*
X019925Y004981D01*
X019925Y005075D02*
X019963Y005075D01*
X019963Y005174D02*
X019925Y005174D01*
X019925Y005272D02*
X019963Y005272D01*
X020153Y005272D02*
X020153Y005272D01*
X020227Y005371D02*
X019536Y005371D01*
X019536Y005469D02*
X020175Y005469D01*
X020076Y005568D02*
X019536Y005568D01*
X019568Y005666D02*
X019978Y005666D01*
X019910Y005765D02*
X019666Y005765D01*
X019765Y005863D02*
X019891Y005863D01*
X019891Y005962D02*
X019863Y005962D01*
X020686Y006864D02*
X021143Y006407D01*
X021904Y006407D01*
X022228Y006407D01*
X020686Y006864D02*
X020686Y007069D01*
X020348Y007053D02*
X019989Y007053D01*
X019938Y007002D01*
X019887Y007053D01*
X019528Y007053D01*
X019528Y007933D01*
X019535Y007933D01*
X019595Y007873D01*
X019887Y007873D01*
X020084Y007873D01*
X020135Y007924D01*
X020185Y007873D01*
X020348Y007873D01*
X020348Y007710D01*
X020399Y007660D01*
X020348Y007609D01*
X020348Y007053D01*
X020348Y007144D02*
X020223Y007144D01*
X020227Y007146D02*
X020255Y007174D01*
X020274Y007208D01*
X020285Y007246D01*
X020285Y007414D01*
X019986Y007414D01*
X019986Y007116D01*
X020154Y007116D01*
X020192Y007126D01*
X020227Y007146D01*
X020283Y007242D02*
X020348Y007242D01*
X020348Y007341D02*
X020285Y007341D01*
X020348Y007439D02*
X019986Y007439D01*
X019986Y007414D02*
X019986Y007511D01*
X020285Y007511D01*
X020285Y007679D01*
X020274Y007718D01*
X020255Y007752D01*
X020227Y007780D01*
X020192Y007799D01*
X020154Y007810D01*
X019986Y007810D01*
X019986Y007511D01*
X019889Y007511D01*
X019889Y007414D01*
X019591Y007414D01*
X019591Y007246D01*
X019601Y007208D01*
X019621Y007174D01*
X019649Y007146D01*
X019683Y007126D01*
X019721Y007116D01*
X019889Y007116D01*
X019889Y007414D01*
X019986Y007414D01*
X019986Y007341D02*
X019889Y007341D01*
X019889Y007439D02*
X019528Y007439D01*
X019591Y007511D02*
X019889Y007511D01*
X019889Y007810D01*
X019721Y007810D01*
X019683Y007799D01*
X019649Y007780D01*
X019621Y007752D01*
X019601Y007718D01*
X019591Y007679D01*
X019591Y007511D01*
X019591Y007538D02*
X019528Y007538D01*
X019528Y007636D02*
X019591Y007636D01*
X019611Y007735D02*
X019528Y007735D01*
X019528Y007833D02*
X020348Y007833D01*
X020348Y007735D02*
X020265Y007735D01*
X020285Y007636D02*
X020375Y007636D01*
X020348Y007538D02*
X020285Y007538D01*
X019986Y007538D02*
X019889Y007538D01*
X019889Y007636D02*
X019986Y007636D01*
X019986Y007735D02*
X019889Y007735D01*
X019536Y007932D02*
X019528Y007932D01*
X019528Y007341D02*
X019591Y007341D01*
X019592Y007242D02*
X019528Y007242D01*
X019528Y007144D02*
X019653Y007144D01*
X019889Y007144D02*
X019986Y007144D01*
X019986Y007242D02*
X019889Y007242D01*
X019895Y007045D02*
X019981Y007045D01*
X022997Y008030D02*
X023595Y008030D01*
X023609Y008129D02*
X023079Y008129D01*
X023115Y007735D02*
X023146Y007735D01*
X022431Y009311D02*
X021747Y009311D01*
X020242Y010394D02*
X020214Y010394D01*
X017450Y012660D02*
X000400Y012660D01*
X000400Y012758D02*
X017450Y012758D01*
X017450Y012857D02*
X000400Y012857D01*
X000400Y012955D02*
X017450Y012955D01*
X017450Y013054D02*
X000400Y013054D01*
X000400Y012561D02*
X005967Y012561D01*
X005868Y012463D02*
X000400Y012463D01*
X000400Y012364D02*
X005770Y012364D01*
X005671Y012266D02*
X000400Y012266D01*
X000400Y012167D02*
X005573Y012167D01*
X005474Y012069D02*
X000400Y012069D01*
X000400Y011970D02*
X005376Y011970D01*
X005277Y011872D02*
X000400Y011872D01*
X000400Y011773D02*
X005179Y011773D01*
X005096Y011675D02*
X000400Y011675D01*
X000400Y011576D02*
X005060Y011576D01*
X005060Y011478D02*
X000400Y011478D01*
X000400Y011379D02*
X005060Y011379D01*
X005060Y011281D02*
X000400Y011281D01*
X000400Y011182D02*
X005060Y011182D01*
X005060Y011084D02*
X000400Y011084D01*
X000400Y010985D02*
X005060Y010985D01*
X005060Y010887D02*
X000400Y010887D01*
X000400Y010788D02*
X005060Y010788D01*
X005060Y010690D02*
X000400Y010690D01*
X000400Y010591D02*
X005060Y010591D01*
X005060Y010493D02*
X000400Y010493D01*
X000400Y010394D02*
X005060Y010394D01*
X005060Y010296D02*
X004837Y010296D01*
X004935Y010197D02*
X005060Y010197D01*
X005060Y010099D02*
X005034Y010099D01*
X004597Y010099D02*
X004497Y010099D01*
X004497Y010197D02*
X004597Y010197D01*
X004597Y010296D02*
X004497Y010296D01*
X004258Y010296D02*
X000400Y010296D01*
X000400Y010197D02*
X004159Y010197D01*
X004061Y010099D02*
X000400Y010099D01*
X000400Y010000D02*
X003962Y010000D01*
X003897Y009902D02*
X000400Y009902D01*
X000400Y009803D02*
X003897Y009803D01*
X003897Y009606D02*
X000400Y009606D01*
X000400Y009508D02*
X003897Y009508D01*
X003897Y009409D02*
X000400Y009409D01*
X000400Y009311D02*
X003983Y009311D01*
X004082Y009212D02*
X000400Y009212D01*
X000400Y009114D02*
X004180Y009114D01*
X004497Y009114D02*
X004597Y009114D01*
X004597Y009212D02*
X004497Y009212D01*
X004497Y009311D02*
X004597Y009311D01*
X004597Y009409D02*
X004497Y009409D01*
X004497Y009508D02*
X004597Y009508D01*
X004597Y009606D02*
X004497Y009606D01*
X004497Y009705D02*
X000400Y009705D01*
X000400Y009015D02*
X005060Y009015D01*
X005060Y008917D02*
X000400Y008917D01*
X000400Y008818D02*
X005060Y008818D01*
X005060Y008720D02*
X000400Y008720D01*
X000400Y008621D02*
X005060Y008621D01*
X005060Y008523D02*
X000400Y008523D01*
X000400Y008424D02*
X005060Y008424D01*
X005060Y008326D02*
X000400Y008326D01*
X000400Y008227D02*
X005060Y008227D01*
X005060Y008129D02*
X000400Y008129D01*
X000400Y008030D02*
X005060Y008030D01*
X005060Y007932D02*
X000400Y007932D01*
X000400Y007833D02*
X005060Y007833D01*
X005060Y007735D02*
X000400Y007735D01*
X000400Y007636D02*
X005060Y007636D01*
X005060Y007538D02*
X000400Y007538D01*
X000400Y007439D02*
X005060Y007439D01*
X005060Y007341D02*
X000400Y007341D01*
X000400Y007242D02*
X005060Y007242D01*
X005060Y007144D02*
X000400Y007144D01*
X000400Y007045D02*
X005060Y007045D01*
X005060Y006947D02*
X000400Y006947D01*
X000400Y006848D02*
X005060Y006848D01*
X005060Y006750D02*
X000400Y006750D01*
X000400Y006651D02*
X005060Y006651D01*
X005060Y006553D02*
X000400Y006553D01*
X000400Y006454D02*
X005060Y006454D01*
X005060Y006356D02*
X000400Y006356D01*
X000400Y006257D02*
X005060Y006257D01*
X005060Y006159D02*
X000400Y006159D01*
X000400Y006060D02*
X005060Y006060D01*
X005060Y005962D02*
X000400Y005962D01*
X000400Y005863D02*
X005060Y005863D01*
X005060Y005765D02*
X000400Y005765D01*
X000400Y005666D02*
X005060Y005666D01*
X005060Y005568D02*
X000400Y005568D01*
X000400Y005469D02*
X005060Y005469D01*
X005060Y005371D02*
X000400Y005371D01*
X000400Y005272D02*
X005060Y005272D01*
X005060Y005174D02*
X000400Y005174D01*
X000400Y005075D02*
X005060Y005075D01*
X005060Y004977D02*
X000400Y004977D01*
X000400Y004878D02*
X005060Y004878D01*
X005060Y004780D02*
X000400Y004780D01*
X000400Y004681D02*
X005060Y004681D01*
X005060Y004583D02*
X000400Y004583D01*
X000400Y004484D02*
X005060Y004484D01*
X005060Y004386D02*
X000400Y004386D01*
X000400Y004287D02*
X005060Y004287D01*
X005060Y004189D02*
X000400Y004189D01*
X000400Y004090D02*
X005060Y004090D01*
X005060Y003992D02*
X000400Y003992D01*
X000400Y003893D02*
X005060Y003893D01*
X005060Y003795D02*
X000400Y003795D01*
X000400Y003696D02*
X005096Y003696D01*
X005179Y003598D02*
X000400Y003598D01*
X000400Y003499D02*
X005278Y003499D01*
X005376Y003401D02*
X000400Y003401D01*
X000400Y003302D02*
X002180Y003302D01*
X002253Y003376D02*
X001837Y002960D01*
X001837Y002372D01*
X002253Y001956D01*
X002841Y001956D01*
X003257Y002372D01*
X003257Y002960D01*
X002841Y003376D01*
X002253Y003376D01*
X002081Y003204D02*
X000400Y003204D01*
X000400Y003105D02*
X001983Y003105D01*
X001884Y003007D02*
X000400Y003007D01*
X000400Y002908D02*
X001837Y002908D01*
X001837Y002810D02*
X000400Y002810D01*
X000400Y002711D02*
X001837Y002711D01*
X001837Y002613D02*
X000400Y002613D01*
X000400Y002514D02*
X001837Y002514D01*
X001837Y002416D02*
X000400Y002416D01*
X000400Y002317D02*
X001892Y002317D01*
X001990Y002219D02*
X000400Y002219D01*
X000400Y002120D02*
X002089Y002120D01*
X002187Y002022D02*
X000400Y002022D01*
X000400Y001923D02*
X003871Y001923D01*
X003871Y001825D02*
X000400Y001825D01*
X000400Y001726D02*
X003871Y001726D01*
X003871Y001628D02*
X000400Y001628D01*
X000400Y001529D02*
X003928Y001529D01*
X004027Y001431D02*
X000400Y001431D01*
X000400Y001332D02*
X004125Y001332D01*
X004224Y001234D02*
X000400Y001234D01*
X000400Y001135D02*
X008427Y001135D01*
X008525Y001037D02*
X000400Y001037D01*
X000400Y000938D02*
X008624Y000938D01*
X008722Y000840D02*
X000400Y000840D01*
X000400Y000741D02*
X008886Y000741D01*
X008328Y001234D02*
X004938Y001234D01*
X005036Y001332D02*
X008230Y001332D01*
X008131Y001431D02*
X005135Y001431D01*
X005233Y001529D02*
X008033Y001529D01*
X007934Y001628D02*
X005291Y001628D01*
X005291Y001726D02*
X007866Y001726D01*
X007840Y001825D02*
X005291Y001825D01*
X005291Y001923D02*
X007840Y001923D01*
X007840Y002022D02*
X006907Y002022D01*
X007006Y002120D02*
X007840Y002120D01*
X007840Y002219D02*
X007104Y002219D01*
X007203Y002317D02*
X007840Y002317D01*
X007840Y002416D02*
X007257Y002416D01*
X007257Y002514D02*
X007840Y002514D01*
X007840Y002613D02*
X007257Y002613D01*
X007257Y002711D02*
X007840Y002711D01*
X007840Y002810D02*
X007257Y002810D01*
X007257Y002908D02*
X007840Y002908D01*
X007840Y003007D02*
X007210Y003007D01*
X007112Y003105D02*
X007840Y003105D01*
X007829Y003204D02*
X007013Y003204D01*
X006915Y003302D02*
X007730Y003302D01*
X007632Y003401D02*
X006249Y003401D01*
X006150Y003499D02*
X007533Y003499D01*
X007435Y003598D02*
X006052Y003598D01*
X005953Y003696D02*
X007336Y003696D01*
X007238Y003795D02*
X005855Y003795D01*
X005475Y003302D02*
X002915Y003302D01*
X003013Y003204D02*
X005573Y003204D01*
X005672Y003105D02*
X003112Y003105D01*
X003210Y003007D02*
X005770Y003007D01*
X005170Y002908D02*
X003257Y002908D01*
X003257Y002810D02*
X005073Y002810D01*
X004975Y002711D02*
X003257Y002711D01*
X003257Y002613D02*
X004876Y002613D01*
X005453Y002317D02*
X005892Y002317D01*
X005990Y002219D02*
X005355Y002219D01*
X005291Y002120D02*
X006089Y002120D01*
X006187Y002022D02*
X005291Y002022D01*
X004210Y002514D02*
X003257Y002514D01*
X003257Y002416D02*
X004111Y002416D01*
X004013Y002317D02*
X003203Y002317D01*
X003104Y002219D02*
X003914Y002219D01*
X003871Y002120D02*
X003006Y002120D01*
X002907Y002022D02*
X003871Y002022D01*
X010209Y003204D02*
X010478Y003204D01*
X010478Y003302D02*
X010209Y003302D01*
X010321Y003401D02*
X010366Y003401D01*
X011153Y003699D02*
X011153Y003710D01*
X011145Y003740D01*
X011245Y003781D01*
X011523Y003781D01*
X011621Y003821D01*
X011695Y003896D01*
X011974Y004175D01*
X012148Y004175D01*
X012190Y004133D01*
X012190Y003762D01*
X012127Y003699D01*
X011153Y003699D01*
X011556Y003795D02*
X012190Y003795D01*
X012190Y003893D02*
X011692Y003893D01*
X011791Y003992D02*
X012190Y003992D01*
X012190Y004090D02*
X011889Y004090D01*
X012483Y004590D02*
X012483Y004590D01*
X011453Y004980D02*
X011141Y005292D01*
X011141Y005321D01*
X011082Y005463D01*
X010973Y005573D01*
X010830Y005632D01*
X010676Y005632D01*
X010533Y005573D01*
X010424Y005463D01*
X010365Y005321D01*
X010365Y005166D01*
X010424Y005024D01*
X010533Y004915D01*
X010676Y004856D01*
X010705Y004856D01*
X011060Y004501D01*
X010954Y004501D01*
X010811Y004442D01*
X010737Y004367D01*
X010007Y005097D01*
X010007Y007129D01*
X010069Y007191D01*
X011453Y007191D01*
X011453Y006646D01*
X011407Y006692D01*
X011265Y006751D01*
X011110Y006751D01*
X010968Y006692D01*
X010858Y006582D01*
X010799Y006440D01*
X010799Y006285D01*
X010858Y006143D01*
X010968Y006033D01*
X011110Y005974D01*
X011211Y005974D01*
X011291Y005941D01*
X011453Y005941D01*
X011453Y005521D01*
X011513Y005461D01*
X011513Y005421D01*
X011553Y005421D01*
X011553Y005421D01*
X011553Y005421D01*
X011513Y005421D01*
X011513Y005381D01*
X011453Y005321D01*
X011453Y004980D01*
X011453Y005075D02*
X011358Y005075D01*
X011453Y005174D02*
X011260Y005174D01*
X011161Y005272D02*
X011453Y005272D01*
X011502Y005371D02*
X011121Y005371D01*
X011077Y005469D02*
X011504Y005469D01*
X011453Y005568D02*
X010978Y005568D01*
X011453Y005666D02*
X010007Y005666D01*
X010007Y005568D02*
X010528Y005568D01*
X010430Y005469D02*
X010007Y005469D01*
X010007Y005371D02*
X010386Y005371D01*
X010365Y005272D02*
X010007Y005272D01*
X010007Y005174D02*
X010365Y005174D01*
X010403Y005075D02*
X010029Y005075D01*
X010127Y004977D02*
X010471Y004977D01*
X010622Y004878D02*
X010226Y004878D01*
X010324Y004780D02*
X010781Y004780D01*
X010880Y004681D02*
X010423Y004681D01*
X010521Y004583D02*
X010978Y004583D01*
X010914Y004484D02*
X010620Y004484D01*
X010718Y004386D02*
X010755Y004386D01*
X012266Y005272D02*
X012597Y005272D01*
X012557Y005371D02*
X012217Y005371D01*
X012206Y005421D02*
X012166Y005421D01*
X012166Y005421D01*
X012166Y005421D01*
X012206Y005421D01*
X012455Y005425D02*
X012475Y005425D01*
X011453Y005765D02*
X010007Y005765D01*
X010007Y005863D02*
X011453Y005863D01*
X011242Y005962D02*
X010007Y005962D01*
X010007Y006060D02*
X010941Y006060D01*
X010852Y006159D02*
X010007Y006159D01*
X010007Y006257D02*
X010811Y006257D01*
X010799Y006356D02*
X010007Y006356D01*
X010007Y006454D02*
X010805Y006454D01*
X010846Y006553D02*
X010007Y006553D01*
X010007Y006651D02*
X010927Y006651D01*
X011108Y006750D02*
X010007Y006750D01*
X010007Y006848D02*
X011453Y006848D01*
X011453Y006750D02*
X011267Y006750D01*
X011448Y006651D02*
X011453Y006651D01*
X011453Y006947D02*
X010007Y006947D01*
X010007Y007045D02*
X011453Y007045D01*
X011453Y007144D02*
X010021Y007144D01*
X008421Y007144D02*
X008229Y007144D01*
X008229Y007045D02*
X008421Y007045D01*
X008421Y006947D02*
X008234Y006947D01*
X008333Y006848D02*
X008421Y006848D01*
X008421Y007242D02*
X008176Y007242D01*
X008225Y007439D02*
X008421Y007439D01*
X008421Y007341D02*
X007111Y007341D01*
X005060Y009114D02*
X004914Y009114D01*
X005013Y009212D02*
X005060Y009212D01*
X004597Y009803D02*
X004497Y009803D01*
X004497Y009902D02*
X004597Y009902D01*
X004597Y010000D02*
X004497Y010000D01*
X015228Y007341D02*
X015760Y007341D01*
X019623Y005272D02*
X019736Y005272D01*
X019400Y004878D02*
X019362Y004878D01*
X019362Y004780D02*
X019400Y004780D01*
X019400Y004681D02*
X019362Y004681D01*
X020723Y004484D02*
X020893Y004484D01*
X020893Y004386D02*
X020723Y004386D01*
X020723Y004287D02*
X020893Y004287D01*
X020893Y004189D02*
X020723Y004189D01*
X020723Y004090D02*
X020893Y004090D01*
X020893Y003992D02*
X020723Y003992D01*
X020723Y003893D02*
X020893Y003893D01*
X020893Y003795D02*
X020723Y003795D01*
X020723Y003696D02*
X020893Y003696D01*
X020893Y003598D02*
X020723Y003598D01*
X020683Y003499D02*
X020932Y003499D01*
X020949Y003007D02*
X021049Y003007D01*
X021049Y002908D02*
X020949Y002908D01*
X020949Y002810D02*
X021049Y002810D01*
X021049Y002711D02*
X020949Y002711D01*
X020251Y002594D02*
X020177Y002668D01*
X019785Y002317D02*
X018050Y002317D01*
X018050Y002219D02*
X019785Y002219D01*
X019877Y002120D02*
X018050Y002120D01*
X018050Y002022D02*
X019799Y002022D01*
X019785Y001923D02*
X018050Y001923D01*
X018050Y001825D02*
X019785Y001825D01*
X019785Y001726D02*
X018050Y001726D01*
X018050Y001628D02*
X019785Y001628D01*
X019785Y001529D02*
X018050Y001529D01*
X018050Y001431D02*
X019785Y001431D01*
X019785Y001332D02*
X018050Y001332D01*
X018050Y001234D02*
X019794Y001234D01*
X018754Y001487D02*
X018360Y001881D01*
X018050Y002416D02*
X019555Y002416D01*
X019456Y002514D02*
X018050Y002514D01*
X018050Y002613D02*
X019358Y002613D01*
X019259Y002711D02*
X018050Y002711D01*
X018050Y002810D02*
X019161Y002810D01*
X019062Y002908D02*
X018050Y002908D01*
X019343Y003499D02*
X019554Y003499D01*
X019515Y003598D02*
X019304Y003598D01*
X019304Y003696D02*
X019515Y003696D01*
X019515Y003795D02*
X019304Y003795D01*
X019304Y003893D02*
X019515Y003893D01*
X020734Y004583D02*
X020975Y004583D01*
X020876Y004681D02*
X020786Y004681D01*
X020804Y004780D02*
X020859Y004780D01*
X020859Y004878D02*
X020804Y004878D01*
X020804Y004977D02*
X020859Y004977D01*
X020859Y005075D02*
X020804Y005075D01*
X023281Y005030D02*
X023478Y005227D01*
D30*
X019156Y006238D02*
X015250Y006238D01*
X018201Y004674D02*
X018557Y005030D01*
X018826Y005030D01*
X018951Y005069D02*
X018951Y005424D01*
X018951Y004906D02*
X018951Y003849D01*
X018996Y003849D02*
X018996Y003411D01*
X019738Y002668D01*
X020177Y002668D01*
X020251Y002594D02*
X020251Y001625D01*
X014423Y001290D02*
X014226Y001093D01*
X014423Y001290D02*
X014423Y004608D01*
X014357Y004674D02*
X018201Y004674D01*
X011344Y004653D02*
X010753Y005244D01*
X009699Y005030D02*
X009699Y007196D01*
X008107Y007724D02*
X007781Y008050D01*
X007781Y010706D01*
X007906Y010831D01*
X008911Y011133D02*
X008911Y011723D01*
X008321Y012314D01*
X006156Y012314D01*
X005368Y011526D01*
X005368Y003845D01*
X006547Y002666D01*
X005368Y002668D02*
X005350Y002650D01*
X004581Y001881D01*
X006757Y006206D02*
X007369Y006206D01*
X007369Y006925D02*
X006757Y006925D01*
X010906Y009081D02*
X011188Y008800D01*
X010906Y009081D02*
X010906Y010831D01*
X009906Y010831D02*
X009906Y009103D01*
X010003Y009006D01*
X012906Y009769D02*
X012906Y010831D01*
X013969Y009743D02*
X015156Y009743D01*
X015168Y009755D02*
X015604Y009755D01*
X016490Y010641D01*
X016043Y011087D01*
X015353Y011087D01*
X016982Y010345D02*
X017179Y010148D01*
X017949Y010148D01*
X017949Y009970D01*
X018360Y009558D01*
X019027Y009558D01*
X019082Y009613D02*
X019082Y009118D01*
X020125Y011050D02*
X020640Y011050D01*
X020919Y011330D01*
X020919Y011723D01*
X020329Y012314D01*
X009502Y012314D01*
X008911Y011723D01*
D31*
X008906Y011718D01*
X008906Y010831D01*
X008911Y011133D02*
X008906Y011138D01*
X008906Y011269D01*
X010906Y010962D02*
X010906Y010831D01*
X010906Y010962D02*
X011864Y011920D01*
X014009Y011920D01*
X014841Y011087D01*
X014030Y010345D02*
X013636Y010739D01*
X013636Y011133D01*
X013045Y011723D01*
X012258Y011723D01*
X011906Y011372D01*
X011906Y010831D01*
X013636Y010739D02*
X013636Y009399D01*
X013328Y009091D01*
X013328Y008856D01*
X013045Y008574D01*
X012652Y008574D01*
X012314Y008236D01*
X011859Y008236D01*
X010542Y008236D01*
X009513Y007738D02*
X011846Y007738D01*
X011859Y007724D01*
X011877Y007706D01*
X013531Y007706D01*
X013969Y008144D01*
X013969Y009232D01*
X013969Y008956D01*
X014281Y008644D01*
X014563Y008175D02*
X014594Y008175D01*
X014625Y008206D01*
X015156Y008206D01*
X016031Y008206D01*
X015156Y008206D02*
X015156Y009232D01*
X015156Y009743D02*
X015168Y009755D01*
X015156Y009743D02*
X015211Y009798D01*
X016490Y010641D02*
X016589Y010739D01*
X017936Y010345D02*
X017949Y010358D01*
X017949Y010148D01*
X018360Y010739D02*
X018744Y010355D01*
X018744Y010307D01*
X019148Y010542D02*
X019148Y010936D01*
X019344Y011133D01*
X019691Y011133D01*
X019768Y011055D01*
X019794Y011081D01*
X019768Y010681D02*
X020780Y010681D01*
X019768Y010307D02*
X019383Y010307D01*
X019148Y010542D01*
X018744Y011055D02*
X017999Y011055D01*
X017949Y011106D01*
X019082Y009613D02*
X019027Y009558D01*
X019593Y009613D02*
X019793Y009613D01*
X019593Y009613D02*
X019938Y009268D01*
X019938Y008211D01*
X020125Y008220D02*
X020135Y008211D01*
X020125Y008220D02*
X020125Y008519D01*
X020469Y008863D01*
X020744Y008863D01*
X020719Y008868D01*
X021219Y008825D02*
X021219Y008581D01*
X021094Y008456D01*
X020438Y008456D01*
X020331Y008350D01*
X020331Y008211D01*
X021219Y008825D02*
X021256Y008863D01*
X019190Y007856D02*
X014681Y007856D01*
X013500Y006675D01*
X011885Y006675D01*
X011859Y006700D01*
X011871Y006456D02*
X011859Y006444D01*
X011871Y006456D02*
X013969Y006456D01*
X015172Y007660D01*
X019190Y007660D01*
X019190Y007463D02*
X016257Y007463D01*
X015656Y006863D01*
X014563Y008175D02*
X013844Y007456D01*
X011871Y007456D01*
X011859Y007468D01*
X011848Y007456D01*
X009959Y007456D01*
X009699Y007196D01*
X008828Y007724D02*
X008107Y007724D01*
X008414Y007980D02*
X008259Y008134D01*
X008259Y009466D01*
X008563Y009769D01*
X011859Y008492D02*
X012176Y008492D01*
X012258Y008574D01*
X012258Y008967D01*
X012381Y009091D01*
X012816Y009091D01*
X013094Y008238D02*
X012836Y007980D01*
X011859Y007980D01*
X012875Y007081D02*
X012750Y006956D01*
X011859Y006956D01*
X011188Y006363D02*
X011344Y006206D01*
X011842Y006206D01*
X011859Y006189D01*
X011474Y005421D02*
X010880Y006015D01*
X010486Y006015D01*
X011474Y005421D02*
X011859Y005421D01*
X011864Y005425D01*
X012455Y005425D01*
X011859Y004909D02*
X014123Y004909D01*
X014357Y004674D01*
X014423Y004608D01*
X015407Y003849D02*
X015604Y004046D01*
X015604Y005227D02*
X015407Y005424D01*
X014030Y005424D01*
X014006Y005425D02*
X014357Y005777D01*
X011859Y004653D02*
X011344Y004653D01*
X011864Y004440D02*
X011470Y004046D01*
X011098Y004046D01*
X011031Y004113D01*
X011063Y004081D01*
X010541Y004189D02*
X010541Y003739D01*
X010344Y003739D02*
X010344Y003425D01*
X010334Y003434D01*
X009842Y003434D01*
X009842Y003631D02*
X009700Y003631D01*
X009438Y003894D01*
X009438Y004613D01*
X009156Y004894D01*
X008843Y004894D01*
X008828Y004909D01*
X008828Y004653D02*
X008819Y004644D01*
X008188Y004644D01*
X007906Y004363D01*
X007906Y003988D01*
X008656Y003238D01*
X009842Y003238D01*
X009842Y003041D02*
X010178Y003041D01*
X010344Y003206D01*
X010344Y003425D01*
X010846Y003434D02*
X012237Y003434D01*
X012455Y003652D01*
X012455Y004243D01*
X012258Y004440D01*
X011864Y004440D01*
X011864Y003849D02*
X011646Y003631D01*
X010846Y003631D01*
X010846Y003041D02*
X012382Y003041D01*
X012475Y003134D01*
X012061Y002668D02*
X011885Y002844D01*
X010846Y002844D01*
X011274Y002274D02*
X011049Y002050D01*
X011000Y002050D01*
X012061Y001881D02*
X012061Y002668D01*
X012455Y002602D02*
X012475Y002622D01*
X012455Y002602D02*
X012455Y002274D01*
X010541Y004189D02*
X009699Y005030D01*
X008436Y005933D02*
X008124Y005621D01*
X007781Y005621D01*
X007767Y005606D01*
X007730Y005570D01*
X007730Y005227D01*
X007533Y005030D01*
X007533Y004637D01*
X006861Y004128D02*
X006549Y004440D01*
X006549Y005227D01*
X006943Y005621D01*
X007240Y005621D01*
X007255Y005606D01*
X007881Y006206D02*
X007899Y006189D01*
X008828Y006189D01*
X008828Y006444D02*
X008361Y006444D01*
X007881Y006925D01*
X008436Y005933D02*
X008828Y005933D01*
X007255Y004128D02*
X006861Y004128D01*
X008414Y007980D02*
X008828Y007980D01*
X017469Y006769D02*
X017781Y006769D01*
X018278Y007266D01*
X019190Y007266D01*
X019190Y007069D02*
X018863Y007069D01*
X018656Y006863D01*
X018500Y006863D01*
X019156Y006238D02*
X019544Y006625D01*
X019544Y006715D01*
X019741Y006715D02*
X019741Y006214D01*
X019148Y005621D01*
X018951Y005424D01*
X018951Y005069D02*
X018869Y004988D01*
X018951Y004906D01*
X018869Y004937D02*
X018869Y004988D01*
X018826Y005030D01*
X019944Y004963D02*
X019944Y006708D01*
X019938Y006715D01*
X020135Y006715D02*
X020156Y006715D01*
X020156Y005863D01*
X020556Y005463D01*
X020688Y005463D01*
X020456Y005231D01*
X020456Y004963D01*
X020469Y004950D01*
X020469Y004613D01*
X020119Y004263D01*
X020119Y004019D01*
X021497Y004019D02*
X021497Y004672D01*
X021207Y004963D01*
X021200Y004969D01*
X021200Y005463D01*
X021200Y005847D01*
X020331Y006715D01*
X021638Y006141D02*
X021904Y006407D01*
X021638Y006141D02*
X021638Y006013D01*
X021638Y005507D02*
X022137Y005507D01*
X022137Y005507D01*
X021718Y005426D02*
X021638Y005507D01*
X021718Y005426D02*
X021718Y004963D01*
X022228Y006918D02*
X022140Y007007D01*
X022487Y007362D02*
X022874Y007362D01*
X022875Y007363D01*
X023386Y007363D02*
X023872Y007363D01*
X023922Y007413D01*
X023872Y007393D02*
X024463Y007393D01*
X024463Y007589D01*
D32*
X022691Y008377D03*
X023281Y008574D03*
X022100Y007983D03*
X022297Y009361D03*
X023772Y009361D03*
X020526Y009558D03*
X016982Y010345D03*
X014030Y010345D03*
X014281Y008644D03*
X013094Y008238D03*
X012875Y007081D03*
X015250Y006238D03*
X015656Y006863D03*
X017469Y006769D03*
X018500Y006863D03*
X019148Y005621D03*
X015604Y005227D03*
X015604Y004046D03*
X012455Y002274D03*
X013350Y001850D03*
X015050Y001850D03*
X016201Y001881D03*
X018360Y001881D03*
X011274Y002274D03*
X007533Y004637D03*
X016031Y008206D03*
X023478Y005227D03*
D33*
X012906Y009769D03*
X011188Y008800D03*
X010542Y008236D03*
X009513Y007738D03*
X010003Y009006D03*
X008563Y009769D03*
X011188Y006363D03*
X010486Y006015D03*
X010753Y005244D03*
X012455Y005425D03*
X011031Y004113D03*
X011864Y003849D03*
D34*
X015150Y001850D02*
X016250Y001850D01*
X021630Y006018D02*
X022137Y006018D01*
X021638Y006013D02*
X021638Y006018D01*
X021638Y006013D02*
X021638Y006013D01*
D35*
X018360Y010739D02*
X016589Y010739D01*
D36*
X019768Y011055D02*
X019773Y011050D01*
X020125Y011050D01*
X008906Y010831D02*
X008906Y011269D01*
X008150Y003250D02*
X008150Y001850D01*
X008950Y001050D01*
X011624Y001050D01*
X012061Y001487D01*
X012455Y001093D01*
X014226Y001093D01*
X006550Y002650D02*
X005350Y002650D01*
D37*
X024463Y007589D02*
X026825Y009952D01*
X030368Y009952D01*
X030368Y004046D01*
X029778Y004046D01*
M02*
