G75*
G70*
%OFA0B0*%
%FSLAX24Y24*%
%IPPOS*%
%LPD*%
%AMOC8*
5,1,8,0,0,1.08239X$1,22.5*
%
%ADD10C,0.0080*%
%ADD11C,0.0010*%
%ADD12C,0.0060*%
%ADD13C,0.0050*%
%ADD14C,0.0040*%
%ADD15R,0.0079X0.0079*%
%ADD16C,0.0263*%
%ADD17C,0.0070*%
D10*
X000150Y000181D02*
X000150Y013337D01*
X030885Y013337D01*
X030885Y000181D01*
X000150Y000181D01*
X009163Y004516D02*
X011524Y004516D01*
X011524Y009397D01*
X009163Y009397D01*
X009163Y004516D01*
X013885Y004399D02*
X014042Y004241D01*
X014672Y004241D01*
X014830Y004399D01*
X014830Y004832D01*
X013885Y004832D02*
X013885Y004399D01*
X013885Y005619D02*
X013885Y006210D01*
X014830Y006210D01*
X014830Y005619D01*
X019150Y008053D02*
X019347Y008250D01*
D11*
X020132Y007965D02*
X020282Y007965D01*
X020282Y007915D02*
X020282Y008015D01*
X020182Y007915D02*
X020132Y007965D01*
X020132Y007868D02*
X020257Y007868D01*
X020282Y007843D01*
X020282Y007793D01*
X020257Y007768D01*
X020132Y007768D01*
X021401Y007743D02*
X021426Y007768D01*
X021451Y007768D01*
X021476Y007743D01*
X021501Y007768D01*
X021526Y007768D01*
X021551Y007743D01*
X021551Y007693D01*
X021526Y007668D01*
X021551Y007621D02*
X021551Y007521D01*
X021401Y007521D01*
X021426Y007668D02*
X021401Y007693D01*
X021401Y007743D01*
X021476Y007743D02*
X021476Y007718D01*
X022036Y007812D02*
X022036Y007963D01*
X022036Y007812D02*
X022136Y007812D01*
X022183Y007812D02*
X022283Y007812D01*
X022233Y007812D02*
X022233Y007963D01*
X022183Y007912D01*
X020878Y008483D02*
X020778Y008483D01*
X020878Y008583D01*
X020878Y008608D01*
X020853Y008633D01*
X020803Y008633D01*
X020778Y008608D01*
X020730Y008608D02*
X020730Y008558D01*
X020705Y008533D01*
X020630Y008533D01*
X020680Y008533D02*
X020730Y008483D01*
X020630Y008483D02*
X020630Y008633D01*
X020705Y008633D01*
X020730Y008608D01*
X019195Y008728D02*
X019170Y008703D01*
X019120Y008703D01*
X019095Y008728D01*
X019048Y008728D02*
X019023Y008703D01*
X018973Y008703D01*
X018948Y008728D01*
X018948Y008828D01*
X018973Y008853D01*
X019023Y008853D01*
X019048Y008828D01*
X019095Y008828D02*
X019120Y008853D01*
X019170Y008853D01*
X019195Y008828D01*
X019195Y008803D01*
X019170Y008778D01*
X019195Y008753D01*
X019195Y008728D01*
X019170Y008778D02*
X019145Y008778D01*
X019792Y009423D02*
X019892Y009423D01*
X019918Y009448D01*
X019918Y009498D01*
X019892Y009523D01*
X019892Y009570D02*
X019918Y009595D01*
X019918Y009645D01*
X019892Y009670D01*
X019792Y009670D01*
X019767Y009645D01*
X019767Y009595D01*
X019792Y009570D01*
X019817Y009570D01*
X019842Y009595D01*
X019842Y009670D01*
X019792Y009523D02*
X019767Y009498D01*
X019767Y009448D01*
X019792Y009423D01*
X021716Y009931D02*
X021741Y009906D01*
X021841Y009906D01*
X021866Y009931D01*
X021866Y009981D01*
X021841Y010006D01*
X021841Y010053D02*
X021816Y010053D01*
X021791Y010078D01*
X021791Y010128D01*
X021816Y010153D01*
X021841Y010153D01*
X021866Y010128D01*
X021866Y010078D01*
X021841Y010053D01*
X021791Y010078D02*
X021766Y010053D01*
X021741Y010053D01*
X021716Y010078D01*
X021716Y010128D01*
X021741Y010153D01*
X021766Y010153D01*
X021791Y010128D01*
X021741Y010006D02*
X021716Y009981D01*
X021716Y009931D01*
X019314Y011326D02*
X019214Y011326D01*
X019314Y011426D01*
X019314Y011451D01*
X019289Y011476D01*
X019239Y011476D01*
X019214Y011451D01*
X019167Y011476D02*
X019167Y011351D01*
X019142Y011326D01*
X019092Y011326D01*
X019067Y011351D01*
X019067Y011476D01*
X015405Y010808D02*
X015355Y010783D01*
X015305Y010732D01*
X015380Y010732D01*
X015405Y010707D01*
X015405Y010682D01*
X015380Y010657D01*
X015330Y010657D01*
X015305Y010682D01*
X015305Y010732D01*
X015258Y010732D02*
X015233Y010707D01*
X015158Y010707D01*
X015208Y010707D02*
X015258Y010657D01*
X015258Y010732D02*
X015258Y010783D01*
X015233Y010808D01*
X015158Y010808D01*
X015158Y010657D01*
X022698Y006940D02*
X022723Y006965D01*
X022748Y006965D01*
X022848Y006865D01*
X022848Y006965D01*
X022848Y006818D02*
X022848Y006718D01*
X022698Y006718D01*
X022723Y006865D02*
X022698Y006890D01*
X022698Y006940D01*
X023006Y006928D02*
X023031Y006953D01*
X023081Y006953D01*
X023106Y006928D01*
X023153Y006953D02*
X023253Y006953D01*
X023253Y006928D01*
X023153Y006828D01*
X023153Y006803D01*
X023106Y006828D02*
X023081Y006803D01*
X023031Y006803D01*
X023006Y006828D01*
X023006Y006928D01*
X022472Y006070D02*
X022497Y006045D01*
X022497Y005995D01*
X022472Y005970D01*
X022472Y005923D02*
X022497Y005898D01*
X022497Y005848D01*
X022472Y005823D01*
X022372Y005823D01*
X022347Y005848D01*
X022347Y005898D01*
X022372Y005923D01*
X022347Y005970D02*
X022422Y005970D01*
X022397Y006020D01*
X022397Y006045D01*
X022422Y006070D01*
X022472Y006070D01*
X022347Y006070D02*
X022347Y005970D01*
X021514Y005615D02*
X021514Y005515D01*
X021514Y005468D02*
X021464Y005418D01*
X021464Y005443D02*
X021464Y005368D01*
X021514Y005368D02*
X021364Y005368D01*
X021364Y005443D01*
X021389Y005468D01*
X021439Y005468D01*
X021464Y005443D01*
X021414Y005515D02*
X021364Y005565D01*
X021514Y005565D01*
X021265Y005318D02*
X021240Y005343D01*
X021190Y005343D01*
X021165Y005318D01*
X021118Y005318D02*
X021093Y005343D01*
X021043Y005343D01*
X021018Y005318D01*
X021018Y005218D01*
X021043Y005193D01*
X021093Y005193D01*
X021118Y005218D01*
X021165Y005193D02*
X021265Y005293D01*
X021265Y005318D01*
X021265Y005193D02*
X021165Y005193D01*
X019958Y004683D02*
X019958Y004533D01*
X019908Y004533D02*
X020008Y004533D01*
X019908Y004633D02*
X019958Y004683D01*
X019860Y004658D02*
X019835Y004683D01*
X019785Y004683D01*
X019760Y004658D01*
X019760Y004558D01*
X019785Y004533D01*
X019835Y004533D01*
X019860Y004558D01*
X021277Y005898D02*
X021302Y005873D01*
X021403Y005873D01*
X021428Y005898D01*
X021428Y005948D01*
X021403Y005973D01*
X021352Y006020D02*
X021352Y006120D01*
X021277Y006095D02*
X021352Y006020D01*
X021302Y005973D02*
X021277Y005948D01*
X021277Y005898D01*
X021277Y006095D02*
X021428Y006095D01*
X024152Y007714D02*
X024177Y007689D01*
X024277Y007689D01*
X024302Y007714D01*
X024302Y007764D01*
X024277Y007789D01*
X024277Y007836D02*
X024302Y007861D01*
X024302Y007912D01*
X024277Y007937D01*
X024252Y007937D01*
X024227Y007912D01*
X024227Y007836D01*
X024277Y007836D01*
X024227Y007836D02*
X024177Y007887D01*
X024152Y007937D01*
X024177Y007789D02*
X024152Y007764D01*
X024152Y007714D01*
X013783Y004918D02*
X013783Y004868D01*
X013758Y004843D01*
X013658Y004943D01*
X013758Y004943D01*
X013783Y004918D01*
X013758Y004843D02*
X013658Y004843D01*
X013633Y004868D01*
X013633Y004918D01*
X013658Y004943D01*
X013783Y004796D02*
X013783Y004696D01*
X013783Y004746D02*
X013633Y004746D01*
X013683Y004696D01*
X013658Y004648D02*
X013633Y004623D01*
X013633Y004573D01*
X013658Y004548D01*
X013758Y004548D01*
X013783Y004573D01*
X013783Y004623D01*
X013758Y004648D01*
X010847Y002485D02*
X010772Y002410D01*
X010872Y002410D01*
X010847Y002485D02*
X010847Y002334D01*
X010725Y002359D02*
X010725Y002485D01*
X010625Y002485D02*
X010625Y002359D01*
X010650Y002334D01*
X010700Y002334D01*
X010725Y002359D01*
X007819Y005201D02*
X007794Y005176D01*
X007744Y005176D01*
X007719Y005201D01*
X007719Y005251D02*
X007769Y005276D01*
X007794Y005276D01*
X007819Y005251D01*
X007819Y005201D01*
X007719Y005251D02*
X007719Y005326D01*
X007819Y005326D01*
X007671Y005301D02*
X007671Y005251D01*
X007646Y005226D01*
X007571Y005226D01*
X007571Y005176D02*
X007571Y005326D01*
X007646Y005326D01*
X007671Y005301D01*
X007621Y005226D02*
X007671Y005176D01*
X007685Y005776D02*
X007685Y005926D01*
X007760Y005926D01*
X007785Y005901D01*
X007785Y005851D01*
X007760Y005826D01*
X007685Y005826D01*
X007735Y005826D02*
X007785Y005776D01*
X007833Y005801D02*
X007858Y005776D01*
X007908Y005776D01*
X007933Y005801D01*
X007933Y005826D01*
X007908Y005851D01*
X007883Y005851D01*
X007908Y005851D02*
X007933Y005876D01*
X007933Y005901D01*
X007908Y005926D01*
X007858Y005926D01*
X007833Y005901D01*
X007785Y006495D02*
X007735Y006545D01*
X007760Y006545D02*
X007685Y006545D01*
X007685Y006495D02*
X007685Y006645D01*
X007760Y006645D01*
X007785Y006620D01*
X007785Y006570D01*
X007760Y006545D01*
X007833Y006570D02*
X007933Y006570D01*
X007908Y006495D02*
X007908Y006645D01*
X007833Y006570D01*
D12*
X007656Y010331D02*
X007406Y010581D01*
X007406Y011081D01*
X007656Y011331D01*
X008156Y011331D01*
X008406Y011081D01*
X008656Y011331D01*
X009156Y011331D01*
X009406Y011081D01*
X009656Y011331D01*
X010156Y011331D01*
X010406Y011081D01*
X010656Y011331D01*
X011156Y011331D01*
X011406Y011081D01*
X011656Y011331D01*
X012156Y011331D01*
X012406Y011081D01*
X012656Y011331D01*
X013156Y011331D01*
X013406Y011081D01*
X013406Y010581D01*
X013156Y010331D01*
X012656Y010331D01*
X012406Y010581D01*
X012156Y010331D01*
X011656Y010331D01*
X011406Y010581D01*
X011406Y011081D01*
X010406Y011081D02*
X010406Y010581D01*
X010156Y010331D01*
X009656Y010331D01*
X009406Y010581D01*
X009156Y010331D01*
X008656Y010331D01*
X008406Y010581D01*
X008156Y010331D01*
X007656Y010331D01*
X008406Y010581D02*
X008406Y011081D01*
X009406Y011081D02*
X009406Y010581D01*
X010406Y010581D02*
X010656Y010331D01*
X011156Y010331D01*
X011406Y010581D01*
X012406Y010581D02*
X012406Y011081D01*
X018937Y011204D02*
X018937Y011241D01*
X019575Y011241D01*
X019575Y011204D01*
X019575Y010887D02*
X019575Y010850D01*
X019575Y010513D02*
X019575Y010476D01*
X019575Y010159D02*
X019575Y010121D01*
X018937Y010121D01*
X018937Y010159D01*
X018937Y010476D02*
X018937Y010887D01*
D13*
X013301Y009636D02*
X013001Y009636D01*
X013151Y009636D02*
X013151Y010087D01*
X013001Y009937D01*
X012841Y010012D02*
X012841Y009861D01*
X012766Y009786D01*
X012540Y009786D01*
X012540Y009636D02*
X012540Y010087D01*
X012766Y010087D01*
X012841Y010012D01*
X012380Y010087D02*
X012230Y010087D01*
X012305Y010087D02*
X012305Y009711D01*
X012230Y009636D01*
X012155Y009636D01*
X012080Y009711D01*
X019922Y004609D02*
X019922Y004412D01*
X019922Y004609D02*
X021694Y004609D01*
X021694Y004412D01*
X021694Y003625D02*
X021694Y003428D01*
X019922Y003428D01*
X019922Y003625D01*
X010541Y003001D02*
X010543Y003013D01*
X010548Y003024D01*
X010557Y003033D01*
X010568Y003038D01*
X010580Y003040D01*
X010592Y003038D01*
X010603Y003033D01*
X010612Y003024D01*
X010617Y003013D01*
X010619Y003001D01*
X010617Y002989D01*
X010612Y002978D01*
X010603Y002969D01*
X010592Y002964D01*
X010580Y002962D01*
X010568Y002964D01*
X010557Y002969D01*
X010548Y002978D01*
X010543Y002989D01*
X010541Y003001D01*
D14*
X010512Y002780D02*
X010436Y002704D01*
X010436Y002397D01*
X010512Y002320D01*
X010666Y002320D01*
X010743Y002397D01*
X010896Y002320D02*
X011203Y002320D01*
X011049Y002320D02*
X011049Y002780D01*
X010896Y002627D01*
X010743Y002704D02*
X010666Y002780D01*
X010512Y002780D01*
X011356Y002704D02*
X011433Y002780D01*
X011587Y002780D01*
X011663Y002704D01*
X011663Y002627D01*
X011587Y002550D01*
X011663Y002473D01*
X011663Y002397D01*
X011587Y002320D01*
X011433Y002320D01*
X011356Y002397D01*
X011510Y002550D02*
X011587Y002550D01*
X012745Y002381D02*
X012898Y002227D01*
X012821Y002074D02*
X012745Y001997D01*
X012745Y001844D01*
X012821Y001767D01*
X013128Y001767D01*
X013205Y001844D01*
X013205Y001997D01*
X013128Y002074D01*
X013205Y002227D02*
X013205Y002534D01*
X013205Y002381D02*
X012745Y002381D01*
X012821Y002688D02*
X012745Y002764D01*
X012745Y002918D01*
X012821Y002995D01*
X012898Y002995D01*
X013205Y002688D01*
X013205Y002995D01*
X011210Y003976D02*
X010903Y003976D01*
X011057Y003976D02*
X011057Y004437D01*
X010903Y004283D01*
X010750Y004360D02*
X010673Y004437D01*
X010520Y004437D01*
X010443Y004360D01*
X010443Y004053D01*
X010520Y003976D01*
X010673Y003976D01*
X010750Y004053D01*
X010289Y003976D02*
X010136Y003976D01*
X010213Y003976D02*
X010213Y004437D01*
X010289Y004437D02*
X010136Y004437D01*
X006710Y005226D02*
X006403Y005226D01*
X006710Y005533D01*
X006710Y005610D01*
X006634Y005687D01*
X006480Y005687D01*
X006403Y005610D01*
X006250Y005610D02*
X006173Y005687D01*
X005943Y005687D01*
X005943Y005226D01*
X006173Y005226D01*
X006250Y005303D01*
X006250Y005610D01*
X006173Y005945D02*
X006250Y006022D01*
X006250Y006329D01*
X006173Y006405D01*
X005943Y006405D01*
X005943Y005945D01*
X006173Y005945D01*
X006403Y005945D02*
X006710Y005945D01*
X006557Y005945D02*
X006557Y006405D01*
X006403Y006252D01*
X005789Y006405D02*
X005483Y006405D01*
X005483Y005945D01*
X005789Y005945D01*
X005329Y005945D02*
X005022Y005945D01*
X005022Y006405D01*
X005483Y006175D02*
X005636Y006175D01*
X005483Y005687D02*
X005483Y005226D01*
X005789Y005226D01*
X005329Y005226D02*
X005022Y005226D01*
X005022Y005687D01*
X005483Y005687D02*
X005789Y005687D01*
X005636Y005456D02*
X005483Y005456D01*
X011961Y008437D02*
X012037Y008361D01*
X012191Y008361D01*
X012268Y008437D01*
X012421Y008361D02*
X012728Y008361D01*
X012575Y008361D02*
X012575Y008821D01*
X012421Y008668D01*
X012268Y008744D02*
X012191Y008821D01*
X012037Y008821D01*
X011961Y008744D01*
X011961Y008437D01*
X012881Y008591D02*
X013188Y008591D01*
X013112Y008821D02*
X012881Y008591D01*
X013112Y008361D02*
X013112Y008821D01*
X013238Y009258D02*
X013238Y009488D01*
X013315Y009564D01*
X013469Y009564D01*
X013545Y009488D01*
X013545Y009258D01*
X013699Y009258D02*
X013238Y009258D01*
X013545Y009411D02*
X013699Y009564D01*
X013622Y009718D02*
X013545Y009718D01*
X013469Y009795D01*
X013469Y009948D01*
X013545Y010025D01*
X013622Y010025D01*
X013699Y009948D01*
X013699Y009795D01*
X013622Y009718D01*
X013469Y009795D02*
X013392Y009718D01*
X013315Y009718D01*
X013238Y009795D01*
X013238Y009948D01*
X013315Y010025D01*
X013392Y010025D01*
X013469Y009948D01*
X014426Y010025D02*
X014426Y009718D01*
X014503Y009564D02*
X014656Y009564D01*
X014733Y009488D01*
X014733Y009258D01*
X014886Y009258D02*
X014426Y009258D01*
X014426Y009488D01*
X014503Y009564D01*
X014733Y009411D02*
X014886Y009564D01*
X014886Y009718D02*
X014810Y009718D01*
X014503Y010025D01*
X014426Y010025D01*
X018468Y010101D02*
X018468Y009947D01*
X018545Y009870D01*
X018852Y009870D01*
X018929Y009947D01*
X018929Y010101D01*
X018852Y010177D01*
X018929Y010331D02*
X018929Y010638D01*
X018929Y010791D02*
X018852Y010791D01*
X018545Y011098D01*
X018468Y011098D01*
X018468Y010791D01*
X018468Y010484D02*
X018929Y010484D01*
X018622Y010331D02*
X018468Y010484D01*
X018545Y010177D02*
X018468Y010101D01*
X018972Y005718D02*
X018895Y005641D01*
X018895Y005334D01*
X018972Y005258D01*
X019125Y005258D01*
X019202Y005334D01*
X019355Y005258D02*
X019662Y005258D01*
X019509Y005258D02*
X019509Y005718D01*
X019355Y005564D01*
X019202Y005641D02*
X019125Y005718D01*
X018972Y005718D01*
X019816Y005564D02*
X019969Y005718D01*
X019969Y005258D01*
X019816Y005258D02*
X020123Y005258D01*
X020222Y003574D02*
X020145Y003497D01*
X020145Y003191D01*
X020222Y003114D01*
X020375Y003114D01*
X020452Y003191D01*
X020605Y003114D02*
X020912Y003114D01*
X020759Y003114D02*
X020759Y003574D01*
X020605Y003421D01*
X020452Y003497D02*
X020375Y003574D01*
X020222Y003574D01*
X021066Y003574D02*
X021066Y003344D01*
X021219Y003421D01*
X021296Y003421D01*
X021373Y003344D01*
X021373Y003191D01*
X021296Y003114D01*
X021143Y003114D01*
X021066Y003191D01*
X021066Y003574D02*
X021373Y003574D01*
X021373Y002605D02*
X021219Y002529D01*
X021066Y002375D01*
X021296Y002375D01*
X021373Y002299D01*
X021373Y002222D01*
X021296Y002145D01*
X021143Y002145D01*
X021066Y002222D01*
X021066Y002375D01*
X020759Y002605D02*
X020605Y002452D01*
X020452Y002529D02*
X020375Y002605D01*
X020222Y002605D01*
X020145Y002529D01*
X020145Y002222D01*
X020222Y002145D01*
X020375Y002145D01*
X020452Y002222D01*
X020605Y002145D02*
X020912Y002145D01*
X020759Y002145D02*
X020759Y002605D01*
D15*
X006304Y006206D03*
X006304Y006925D03*
D16*
X011220Y004830D03*
D17*
X010934Y003828D02*
X010676Y003828D01*
X010934Y003828D02*
X010934Y003766D01*
X010012Y003828D02*
X009753Y003828D01*
X009753Y003766D01*
X009753Y002709D02*
X009753Y002647D01*
X010012Y002647D01*
X010676Y002647D02*
X010934Y002647D01*
X010934Y002709D01*
M02*
