G75*
G70*
%OFA0B0*%
%FSLAX24Y24*%
%IPPOS*%
%LPD*%
%AMOC8*
5,1,8,0,0,1.08239X$1,22.5*
%
%ADD10C,0.0080*%
%ADD11R,0.0316X0.0394*%
%ADD12R,0.0394X0.0316*%
%ADD13R,0.0512X0.0257*%
%ADD14R,0.0670X0.0591*%
%ADD15R,0.0434X0.0434*%
%ADD16R,0.0158X0.0296*%
%ADD17R,0.0296X0.0158*%
%ADD18C,0.0640*%
%ADD19OC8,0.1040*%
%ADD20R,0.0512X0.0512*%
%ADD21R,0.0434X0.0178*%
%ADD22R,0.0158X0.0355*%
%ADD23R,0.0355X0.0158*%
%ADD24R,0.0473X0.0434*%
%ADD25R,0.0552X0.0631*%
%ADD26C,0.0890*%
%ADD27R,0.0827X0.0827*%
%ADD28R,0.0631X0.0552*%
D10*
X000150Y000181D02*
X000150Y013337D01*
X030885Y013337D01*
X030885Y000181D01*
X000150Y000181D01*
D11*
X007255Y005606D03*
X007767Y005606D03*
X007881Y006206D03*
X007369Y006206D03*
X007369Y006925D03*
X007881Y006925D03*
X012816Y009091D03*
X013328Y009091D03*
X014841Y011087D03*
X015353Y011087D03*
X019082Y009613D03*
X019593Y009613D03*
X019593Y009113D03*
X019082Y009113D03*
X020744Y008863D03*
X021256Y008863D03*
X021975Y007362D03*
X022487Y007362D03*
X022875Y007363D03*
X023386Y007363D03*
X021200Y005463D03*
X020688Y005463D03*
X020456Y004963D03*
X019944Y004963D03*
X019381Y004988D03*
X018869Y004988D03*
X021207Y004963D03*
X021718Y004963D03*
D12*
X021638Y005507D03*
X022137Y005507D03*
X022137Y006018D03*
X021638Y006018D03*
X022228Y006407D03*
X022228Y006918D03*
X021531Y006810D03*
X021531Y007322D03*
X023922Y007413D03*
X023922Y007925D03*
X021506Y009585D03*
X021506Y010097D03*
X015156Y009743D03*
X013969Y009743D03*
X013969Y009232D03*
X015156Y009232D03*
X012475Y003134D03*
X012475Y002622D03*
D13*
X018744Y010307D03*
X019768Y010307D03*
X019768Y010681D03*
X019768Y011055D03*
X018744Y011055D03*
D14*
X014357Y005777D03*
X014357Y004674D03*
D15*
X019938Y007463D03*
D16*
X019938Y006715D03*
X020135Y006715D03*
X020331Y006715D03*
X019741Y006715D03*
X019544Y006715D03*
X019544Y008211D03*
X019741Y008211D03*
X019938Y008211D03*
X020135Y008211D03*
X020331Y008211D03*
D17*
X020686Y007856D03*
X020686Y007660D03*
X020686Y007463D03*
X020686Y007266D03*
X020686Y007069D03*
X019190Y007069D03*
X019190Y007266D03*
X019190Y007463D03*
X019190Y007660D03*
X019190Y007856D03*
D18*
X012906Y010531D02*
X012906Y011131D01*
X011906Y011131D02*
X011906Y010531D01*
X010906Y010531D02*
X010906Y011131D01*
X009906Y011131D02*
X009906Y010531D01*
X008906Y010531D02*
X008906Y011131D01*
X007906Y011131D02*
X007906Y010531D01*
D19*
X004547Y009666D03*
X002547Y002666D03*
X006547Y002666D03*
D20*
X006757Y006206D03*
X005930Y006206D03*
X005930Y006925D03*
X006757Y006925D03*
D21*
X008828Y006956D03*
X008828Y007212D03*
X008828Y007468D03*
X008828Y007724D03*
X008828Y007980D03*
X008828Y008236D03*
X008828Y008492D03*
X008828Y008748D03*
X008828Y009003D03*
X008828Y009259D03*
X011859Y009259D03*
X011859Y009003D03*
X011859Y008748D03*
X011859Y008492D03*
X011859Y008236D03*
X011859Y007980D03*
X011859Y007724D03*
X011859Y007468D03*
X011859Y007212D03*
X011859Y006956D03*
X011859Y006700D03*
X011859Y006444D03*
X011859Y006189D03*
X011859Y005933D03*
X011859Y005677D03*
X011859Y005421D03*
X011859Y005165D03*
X011859Y004909D03*
X011859Y004653D03*
X008828Y004653D03*
X008828Y004909D03*
X008828Y005165D03*
X008828Y005421D03*
X008828Y005677D03*
X008828Y005933D03*
X008828Y006189D03*
X008828Y006444D03*
X008828Y006700D03*
D22*
X010147Y003739D03*
X010344Y003739D03*
X010541Y003739D03*
X010541Y002736D03*
X010344Y002736D03*
X010147Y002736D03*
D23*
X009842Y002844D03*
X009842Y003041D03*
X009842Y003238D03*
X009842Y003434D03*
X009842Y003631D03*
X010846Y003631D03*
X010846Y003434D03*
X010846Y003238D03*
X010846Y003041D03*
X010846Y002844D03*
D24*
X011000Y002050D03*
X010331Y002050D03*
D25*
X020251Y001625D03*
X020999Y001625D03*
X020999Y002594D03*
X020251Y002594D03*
D26*
X018072Y003628D03*
X018072Y005596D03*
X013150Y005596D03*
X013150Y003628D03*
D27*
X020119Y004019D03*
X021497Y004019D03*
D28*
X017949Y010358D03*
X017949Y011106D03*
M02*
