G75*
G70*
%OFA0B0*%
%FSLAX24Y24*%
%IPPOS*%
%LPD*%
%AMOC8*
5,1,8,0,0,1.08239X$1,22.5*
%
%ADD10C,0.0080*%
%ADD11C,0.0600*%
%ADD12OC8,0.1000*%
%ADD13C,0.0850*%
%ADD14C,0.0197*%
%ADD15R,0.0356X0.0356*%
%ADD16C,0.0110*%
%ADD17C,0.0356*%
%ADD18C,0.0150*%
%ADD19C,0.0100*%
D10*
X000150Y000181D02*
X000150Y013337D01*
X030885Y013337D01*
X030885Y000181D01*
X000150Y000181D01*
D11*
X007906Y010531D02*
X007906Y011131D01*
X008906Y011131D02*
X008906Y010531D01*
X009906Y010531D02*
X009906Y011131D01*
X010906Y011131D02*
X010906Y010531D01*
X011906Y010531D02*
X011906Y011131D01*
X012906Y011131D02*
X012906Y010531D01*
D12*
X004547Y009666D03*
X002547Y002666D03*
X004581Y001881D03*
X006547Y002666D03*
D13*
X013150Y003628D03*
X013150Y005596D03*
X018072Y005596D03*
X018072Y003628D03*
D14*
X011188Y006363D02*
X011188Y008800D01*
X010542Y008236D02*
X010486Y007983D01*
X010486Y006015D01*
X010003Y005513D02*
X010289Y005227D01*
X010343Y005227D02*
X010753Y005244D01*
X010003Y005513D02*
X010003Y009006D01*
X008563Y009769D02*
X012906Y009769D01*
X014030Y010345D02*
X016982Y010345D01*
X016719Y008644D02*
X014281Y008644D01*
X016719Y008644D02*
X018500Y006863D01*
X011031Y004113D02*
X010507Y004637D01*
X009699Y004637D01*
X009513Y004823D01*
X009513Y007738D01*
D15*
X012875Y007081D03*
X013094Y008238D03*
X014281Y008644D03*
X016031Y008206D03*
X015656Y006863D03*
X015250Y006238D03*
X015604Y005227D03*
X015604Y004046D03*
X019148Y005621D03*
X017469Y006769D03*
X018500Y006863D03*
X022100Y007983D03*
X022691Y008377D03*
X023281Y008574D03*
X023772Y009361D03*
X022297Y009361D03*
X020526Y009558D03*
X016982Y010345D03*
X014030Y010345D03*
X023478Y005227D03*
X018360Y001881D03*
X016201Y001881D03*
X015050Y001850D03*
X013350Y001850D03*
X012455Y002274D03*
X011274Y002274D03*
X007533Y004637D03*
D16*
X007730Y004440D01*
X010289Y005227D02*
X010343Y005227D01*
X011864Y004046D02*
X012455Y004637D01*
X012455Y005425D01*
X014406Y007081D02*
X015250Y006238D01*
X015281Y006863D02*
X015656Y006863D01*
X015281Y006863D02*
X013906Y008238D01*
X013094Y008238D01*
X012875Y007081D02*
X014406Y007081D01*
X016031Y008206D02*
X017469Y006769D01*
X019148Y005621D02*
X022691Y005621D01*
X022888Y005818D01*
X022888Y007786D01*
X022691Y007983D01*
X022691Y008377D01*
X022297Y009361D02*
X023772Y009361D01*
X015604Y005227D02*
X015604Y004046D01*
X011864Y004046D02*
X011864Y003849D01*
X011274Y002274D02*
X012455Y002274D01*
D17*
X011864Y003849D03*
X011031Y004113D03*
X010753Y005244D03*
X010486Y006015D03*
X011188Y006363D03*
X012455Y005425D03*
X009513Y007738D03*
X010542Y008236D03*
X011188Y008800D03*
X010003Y009006D03*
X008563Y009769D03*
X012906Y009769D03*
D18*
X017745Y005596D02*
X016785Y004637D01*
X017745Y005596D02*
X018072Y005596D01*
X018360Y001881D02*
X016201Y001881D01*
X009108Y001290D02*
X007730Y002668D01*
X007730Y004440D01*
D19*
X013350Y001850D02*
X015050Y001850D01*
X015450Y002050D02*
X016050Y002650D01*
X016550Y002650D01*
X016750Y002850D01*
X016750Y004601D01*
X016785Y004637D01*
X015450Y002050D02*
X015450Y001450D01*
X015290Y001290D01*
X009108Y001290D01*
X023478Y005227D02*
X023478Y008770D01*
X023281Y008574D01*
X022100Y008180D02*
X022100Y007983D01*
X022100Y008180D02*
X020722Y009558D01*
X020526Y009558D01*
M02*
