%
M48
M72
T01C0.0236
T02C0.0400
T03C0.0433
T04C0.0440
T05C0.0472
%
T01
X7533Y4637
X10486Y6015
X11188Y6363
X12875Y7081
X13094Y8238
X14281Y8644
X16031Y8206
X15656Y6863
X15250Y6238
X15604Y5227
X15604Y4046
X12455Y5425
X10753Y5244
X11031Y4113
X11864Y3849
X11274Y2274
X12455Y2274
X13350Y1850
X15050Y1850
X16201Y1881
X18360Y1881
X23478Y5227
X19148Y5621
X17469Y6769
X18500Y6863
X22100Y7983
X22691Y8377
X23281Y8574
X23772Y9361
X22297Y9361
X20526Y9558
X16982Y10345
X14030Y10345
X12906Y9769
X11188Y8800
X10542Y8236
X9513Y7738
X10003Y9006
X8563Y9769
T02
X8906Y10831
X7906Y10831
X9906Y10831
X10906Y10831
X11906Y10831
X12906Y10831
T03
X4581Y1881
T04
X2547Y2666
X6547Y2666
X4547Y9666
T05
X13150Y5596
X13150Y3628
X18072Y3628
X18072Y5596
M30
